<?xml version="1.0" standalone="no"?>
<!DOCTYPE svg PUBLIC "-//W3C//DTD SVG 1.1//EN" "http://www.w3.org/Graphics/SVG/1.1/DTD/svg11.dtd" >
<svg xmlns="http://www.w3.org/2000/svg">
<metadata>Generated by IcoMoon</metadata>
<defs>
<font id="icomoon" horiz-adv-x="1024">
<font-face units-per-em="1024" ascent="960" descent="-64" />
<missing-glyph horiz-adv-x="1024" />
<glyph unicode="&#x20;" horiz-adv-x="512" d="" />
<glyph unicode="&#xe900;" glyph-name="xtf" d="M782.24 642.080c0 0.006 0 0.014 0 0.022 0 3.586-1.268 6.875-3.381 9.444l0.021-0.026-143.84 164.48c-0.803 0.958-1.756 1.759-2.829 2.373l-0.051 0.027h-0.96c-0.823 0.539-1.792 0.931-2.834 1.113l-0.046 0.007c-0.503 0.042-1.089 0.066-1.68 0.066s-1.177-0.024-1.756-0.071l0.076 0.005h-383.36v-744.32h540.8v564.8c0.023 0.189 0.037 0.408 0.037 0.631 0 0.516-0.072 1.015-0.206 1.488l0.009-0.038zM419.2 112l-26.56 62.56-26.4-62.56h-40.8l46.080 93.28-42.4 91.36h40.96l23.84-59.84 23.52 59.84h40.64l-42.080-91.36 45.12-93.28zM583.84 266.080h-39.84v-154.080h-37.76v154.080h-40.32v30.56h117.92zM703.040 266.080h-65.92v-43.36h62.080v-30.72h-62.080v-80h-37.28v184.64h103.2zM753.12 324.32h-482.24v467.2h338.56v-164.16h144zM397.12 426.56l-101.28 101.44 101.28 101.44 22.72-22.72-78.72-78.72 78.72-78.72-22.72-22.72zM623.68 426.56l-22.72 22.72 78.88 78.72-78.88 78.72 22.72 22.72 101.28-101.44-101.28-101.44zM444.647 406.679l101.814 254.812 29.716-11.873-101.814-254.812-29.716 11.873z" />
<glyph unicode="&#xe901;" glyph-name="interils" d="M65.6-19.040h-41.6c0.637 527.254 427.934 954.494 955.147 955.040h0.053v-41.6c-504.292-0.546-912.963-409.162-913.6-913.379v-0.061zM480.8-40v20.8c0.273 275.093 223.16 498.036 498.205 498.4h20.835v-519.040zM958.24 437.28c-235.79-11.483-424.054-199.857-435.32-434.637l-0.040-1.043h435.52zM304-19.040c-97.202 0-176 78.798-176 176s78.798 176 176 176c97.202 0 176-78.798 176-176v0c0-97.202-78.798-176-176-176v0zM304 292.32c-74.58 0-135.040-60.459-135.040-135.040s60.459-135.040 135.040-135.040c74.581 0 135.040 60.459 135.040 135.040 0 0.056 0 0.112 0 0.169v-0.009c-0.091 74.512-60.516 134.88-135.040 134.88 0 0 0 0 0 0v0zM480.8 313.12c-97.202 0-176 78.798-176 176s78.798 176 176 176c97.202 0 176-78.798 176-176v0c0-97.202-78.798-176-176-176v0zM480.8 624.48c-74.58 0-135.040-60.459-135.040-135.040s60.459-135.040 135.040-135.040c74.581 0 135.040 60.459 135.040 135.040 0 0.056 0 0.112 0 0.169v-0.009c-0.363 74.305-60.683 134.4-135.038 134.4 0 0-0.001 0-0.001 0v0zM802.72 500c-97.202 0-176 78.798-176 176s78.798 176 176 176c97.202 0 176-78.798 176-176v0c0-97.202-78.798-176-176-176v0zM802.72 811.36c-0.048 0-0.104 0-0.16 0-74.581 0-135.040-60.459-135.040-135.040s60.459-135.040 135.040-135.040c74.581 0 135.040 60.459 135.040 135.040 0 0.056 0 0.113 0 0.169v-0.009c-0.182 74.419-60.461 134.698-134.863 134.88h-0.017z" />
<glyph unicode="&#xe902;" glyph-name="theme" d="M512 249.76h-488v671.040h488zM54.56 280.32h426.88v609.92h-426.88zM756 112.48h-488v152.48h30.56v-121.92h426.88v609.92h-228.64v30.56h259.2v-671.040zM1000-24.8h-488v152.48h30.56v-121.92h426.88v609.92h-228.64v30.56h259.2v-671.040zM519.050 3.23l213.398 137.315 16.537-25.699-213.398-137.315-16.537 25.699zM274.934 140.561l213.398 137.315 16.537-25.699-213.398-137.315-16.537 25.699zM295.415 536.411l21.609 21.609 190.636-190.636-21.609-21.609-190.636 190.636zM28.423 803.344l21.609 21.609 99.108-99.108-21.609-21.609-99.108 99.108zM325.814 527.428l160.089 160.089 21.609-21.609-160.089-160.089-21.609 21.609zM28.419 489.187l121.962 121.962 21.609-21.609-121.962-121.962-21.609 21.609zM245.12 466.080l-9.92 8.48c-4.64 3.84-112 97.76-112 240 2.446 65.495 56.131 117.661 122 117.661s119.554-52.167 121.993-117.439l0.007-0.222c0-142.56-107.52-236.48-112-240zM245.12 806.4c-50.508-0.091-91.429-41.012-91.52-91.511v-0.009c0-104.32 65.92-181.6 91.52-208 25.44 26.080 91.52 103.68 91.52 208-0.091 50.508-41.012 91.429-91.511 91.52h-0.009zM245.12 653.92c-33.667 0-60.96 27.293-60.96 60.96s27.293 60.96 60.96 60.96c33.667 0 60.96-27.293 60.96-60.96v0c-0.091-33.631-27.329-60.869-60.951-60.96h-0.009zM245.12 745.44c-16.878 0-30.56-13.682-30.56-30.56s13.682-30.56 30.56-30.56c16.878 0 30.56 13.682 30.56 30.56v0c-0.090 16.841-13.719 30.47-30.551 30.56h-0.009z" />
<glyph unicode="&#xe903;" glyph-name="visor" d="M512 513.44c-64.153 0-116.16 52.007-116.16 116.16s52.007 116.16 116.16 116.16c64.153 0 116.16-52.007 116.16-116.16v0c-0.091-64.117-52.043-116.069-116.151-116.16h-0.009zM512 715.2c-0.047 0-0.104 0-0.16 0-47.364 0-85.76-38.396-85.76-85.76s38.396-85.76 85.76-85.76c47.364 0 85.76 38.396 85.76 85.76 0 0.056 0 0.112 0 0.169v-0.009c-0.091 47.239-38.361 85.509-85.591 85.6h-0.009zM512 60.96l-11.68 14.24c-11.68 14.24-285.92 349.44-285.92 554.4 0 164.36 133.24 297.6 297.6 297.6s297.6-133.24 297.6-297.6v0c0-204.96-274.24-540.16-285.92-554.4zM512 896c-147.497-0.182-267.018-119.703-267.2-267.183v-0.017c0-170.080 214.24-452.8 267.2-519.52 52.96 66.72 267.2 349.44 267.2 520.32-0.636 147.153-119.983 266.219-267.182 266.4h-0.018zM1000-31.2h-976l175.68 373.44h90.4v-30.56h-71.040l-147.040-312.48h880l-147.040 312.48h-71.040v30.56h90.4l175.68-373.44z" />
<glyph unicode="&#xe904;" glyph-name="catalogue" d="M967.2-40h-848v976h848zM150.080-8h785.92v912.8h-785.92zM283.040 916.8h31.2v-948.48h-31.2v948.48zM138.080 722.4c-44.89 0-81.28 36.39-81.28 81.28s36.39 81.28 81.28 81.28c44.89 0 81.28-36.39 81.28-81.28h-32c-0.004 27.656-22.424 50.074-50.080 50.074-27.658 0-50.080-22.422-50.080-50.080s22.422-50.080 50.080-50.080c0.281 0 0.562 0.002 0.842 0.007l-0.042-0.001zM138.080 547.36c-44.89 0-81.28 36.39-81.28 81.28s36.39 81.28 81.28 81.28c44.89 0 81.28-36.39 81.28-81.28v0h-32c0 27.658-22.422 50.080-50.080 50.080s-50.080-22.422-50.080-50.080c0-27.658 22.422-50.080 50.080-50.080v0zM138.080 364.96c-44.89 0-81.28 36.39-81.28 81.28s36.39 81.28 81.28 81.28c44.89 0 81.28-36.39 81.28-81.28v0h-32c0 27.658-22.422 50.080-50.080 50.080s-50.080-22.422-50.080-50.080c0-27.658 22.422-50.080 50.080-50.080v0zM138.080 189.76c-44.89 0-81.28 36.39-81.28 81.28s36.39 81.28 81.28 81.28c44.89 0 81.28-36.39 81.28-81.28v0h-32c0 27.658-22.422 50.080-50.080 50.080s-50.080-22.422-50.080-50.080c0-27.658 22.422-50.080 50.080-50.080v0zM138.080 7.36c-44.89 0-81.28 36.39-81.28 81.28s36.39 81.28 81.28 81.28c44.89 0 81.28-36.39 81.28-81.28v0h-32c0 27.658-22.422 50.080-50.080 50.080s-50.080-22.422-50.080-50.080c0-27.658 22.422-50.080 50.080-50.080v0zM484.64 559.040l-68.64 69.6 210.88 211.68 208-208-69.44-69.44-138.72 138.56zM459.36 628.64l25.28-25.44 142.24 142.24 138.72-138.56 25.28 25.28-164 164zM737.44 481.6h-225.12v142.88h31.2v-111.68h162.56v113.44h31.36v-144.64zM378.88 352.32h196.96v-31.2h-196.96v31.2zM382.56 250.24h109.44v-31.2h-109.44v31.2zM382.56 155.36h145.92v-31.2h-145.92v31.2zM608.64 352.32h145.92v-31.2h-145.92v31.2zM528.48 250.24h160.48v-31.2h-160.48v31.2zM557.6 155.2h182.4v-31.2h-182.4v31.2zM791.040 352.32h80.32v-31.2h-80.32v31.2zM725.44 250.24h145.92v-31.2h-145.92v31.2zM776.48 155.2h94.88v-31.2h-94.88v31.2z" />
<glyph unicode="&#xe905;" glyph-name="gestor" d="M1000-8.16h-976v912h976zM55.040 22.72h913.92v850.56h-913.92zM39.52 722.4h944.96v-31.040h-944.96v31.040zM857.28 813.28h63.68v-31.040h-63.68v31.040zM107.68 813.28h63.68v-31.040h-63.68v31.040zM198.56 813.28h63.68v-31.040h-63.68v31.040zM325.76 440.8h63.68v-31.040h-63.68v31.040zM813.76 7.36h-31.040v343.36l-177.12 177.12h-360.16v-520.48h-30.88v551.52h403.84l195.36-195.36v-356.16zM793.6 346.24h-197.12v197.12h31.040v-166.24h166.080v-30.88zM324.48 248.64h378.24v-31.040h-378.24v31.040zM324.48 157.76h378.24v-31.040h-378.24v31.040z" />
<glyph unicode="&#xe906;" glyph-name="validate" d="M888-32h-752v960h752zM168 0h688v896h-688zM824 29.92h-624v836.16h624zM232 61.92h560v772.16h-560zM728 768h-416v160h416zM344 800h352v96h-352zM421.28 559.36h-160.16v160.16h80.16v-32h-48.16v-96.16h96.16v25.44h32v-57.44zM344.32 591.84l-45.76 45.76 22.72 22.56 23.040-23.040 68.32 68.32 22.72-22.56-91.040-91.040zM421.28 351.36h-160.16v160.16h80.16v-32h-48.16v-96.16h96.16v25.44h32v-57.44zM344.32 383.84l-45.76 45.76 22.72 22.56 23.040-23.040 68.32 68.32 22.72-22.56-91.040-91.040zM424 128h-160v160h160zM296 160h96v96h-96zM504 688h224v-32h-224v32zM504 624h112v-32h-112v32zM504 480h224v-32h-224v32zM504 416h112v-32h-112v32zM504 256h224v-32h-224v32zM504 192h112v-32h-112v32z" />
<glyph unicode="&#xe907;" glyph-name="legal" d="M512 594.72c-59.028 0-106.88 47.852-106.88 106.88s47.852 106.88 106.88 106.88c59.028 0 106.88-47.852 106.88-106.88v0c-0.091-58.992-47.888-106.789-106.871-106.88h-0.009zM512 777.44c-41.974 0-76-34.026-76-76s34.026-76 76-76c41.974 0 76 34.026 76 76 0 0.056 0 0.112 0 0.169v-0.009c-0.091 41.905-34.082 75.84-76 75.84 0 0 0 0 0 0v0zM204.64 140.64c-99.728 0.091-180.549 80.912-180.64 180.631v0.009c1.801 7.012 8.065 12.11 15.52 12.11s13.719-5.099 15.496-11.999l0.024-0.111c0-82.622 66.978-149.6 149.6-149.6s149.6 66.978 149.6 149.6v0c1.801 7.012 8.065 12.11 15.52 12.11s13.719-5.099 15.496-11.999l0.024-0.111c-0.091-99.728-80.912-180.549-180.631-180.64h-0.009zM601.44 701.12c-7.598 1.338-13.298 7.888-13.298 15.77 0 6.951 4.433 12.867 10.626 15.075l0.112 0.035 320 52.64c0.627 0.087 1.352 0.137 2.088 0.137 7.696 0 14.122-5.433 15.653-12.672l0.019-0.104c0.101-0.674 0.158-1.452 0.158-2.244 0-7.703-5.444-14.135-12.694-15.658l-0.104-0.018-320-52.64zM98.4 618.24c-0.087-0.002-0.189-0.003-0.291-0.003-7.762 0-14.233 5.527-15.692 12.861l-0.017 0.102c-0.074 0.578-0.116 1.246-0.116 1.924 0 8.031 5.917 14.68 13.629 15.825l0.087 0.011 321.28 53.12c2.125 1.115 4.643 1.769 7.313 1.769 8.837 0 16-7.163 16-16s-7.163-16-16-16c-0.773 0-1.534 0.055-2.278 0.161l0.085-0.010-321.44-53.6zM512 37.44c-8.837 0-16 7.163-16 16v0 556.8c1.908 6.856 8.096 11.804 15.44 11.804s13.532-4.948 15.413-11.691l0.027-0.113v-557.28c-0.235-8.255-6.688-14.931-14.828-15.517l-0.052-0.003zM512 777.44c-8.837 0-16 7.163-16 16v0 49.6c-0.356 1.258-0.56 2.703-0.56 4.196 0 8.837 7.163 16 16 16s16-7.163 16-16c0-1.493-0.204-2.938-0.587-4.309l0.027 0.113v-50.080c-0.235-8.255-6.688-14.931-14.828-15.517l-0.052-0.003zM708.8 37.44h-395.040c-1.258-0.356-2.703-0.56-4.196-0.56-8.837 0-16 7.163-16 16s7.163 16 16 16c1.493 0 2.938-0.204 4.309-0.587l-0.113 0.027h395.040c1.258 0.356 2.703 0.56 4.196 0.56 8.837 0 16-7.163 16-16s-7.163-16-16-16c-1.493 0-2.938 0.204-4.309 0.587l0.113-0.027zM369.76 305.76h-330.24c-1.258-0.356-2.703-0.56-4.196-0.56-8.837 0-16 7.163-16 16s7.163 16 16 16c1.493 0 2.938-0.204 4.309-0.587l-0.113 0.027h330.24c1.258 0.356 2.703 0.56 4.196 0.56 8.837 0 16-7.163 16-16s-7.163-16-16-16c-1.493 0-2.938 0.204-4.309 0.587l0.113-0.027zM39.52 305.76c-0.072-0.001-0.156-0.002-0.24-0.002-2.424 0-4.71 0.592-6.72 1.64l0.081-0.038c-5.093 2.745-8.496 8.041-8.496 14.131 0 2.419 0.537 4.712 1.497 6.767l-0.041-0.098 165.12 330.24c2.948 3.357 7.249 5.465 12.042 5.465 8.837 0 16-7.163 16-16 0-1.199-0.132-2.368-0.382-3.491l0.020 0.106-165.12-330.24c-2.69-4.981-7.817-8.34-13.741-8.48h-0.019zM369.76 305.76c-6.005 0.079-11.204 3.454-13.878 8.395l-0.042 0.085-165.12 330.24c-0.919 1.957-1.456 4.25-1.456 6.669 0 6.090 3.403 11.386 8.411 14.089l0.085 0.042c1.941 0.903 4.214 1.429 6.61 1.429 6.016 0 11.256-3.32 13.989-8.228l0.042-0.081 165.6-330.24c0.851-1.892 1.347-4.1 1.347-6.425 0-8.522-6.663-15.488-15.064-15.973l-0.043-0.002zM819.36 240c-99.804 0.182-180.641 81.131-180.641 180.96 0 0.169 0 0.338 0.001 0.507v-0.026c1.801 7.012 8.065 12.11 15.52 12.11s13.719-5.099 15.496-11.999l0.024-0.111c0-82.622 66.978-149.6 149.6-149.6s149.6 66.978 149.6 149.6v0c1.801 7.012 8.065 12.11 15.52 12.11s13.719-5.099 15.496-11.999l0.024-0.111c0.001-0.19 0.001-0.415 0.001-0.64 0-99.797-80.856-180.71-180.633-180.8h-0.009zM984.48 405.92h-330.24c-7.012 1.801-12.11 8.065-12.11 15.52s5.099 13.719 11.999 15.496l0.111 0.024h330.24c7.012-1.801 12.11-8.065 12.11-15.52s-5.099-13.719-11.999-15.496l-0.111-0.024zM654.24 405.92c-2.523 0.069-4.881 0.712-6.968 1.802l0.088-0.042c-5.205 2.711-8.697 8.066-8.697 14.236 0 2.316 0.492 4.518 1.378 6.505l-0.040-0.102 165.6 330.24c1.531 7.368 7.969 12.825 15.682 12.825 8.837 0 16-7.163 16-16 0-4.067-1.517-7.779-4.016-10.602l0.015 0.017-165.12-330.24c-2.677-5.091-7.884-8.528-13.905-8.64h-0.015zM984.48 405.92c-5.973 0.173-11.109 3.595-13.718 8.552l-0.042 0.088-165.12 330.24c-0.939 1.975-1.488 4.292-1.488 6.738 0 6.039 3.346 11.297 8.285 14.021l0.083 0.042c1.957 0.919 4.25 1.456 6.669 1.456 6.090 0 11.386-3.403 14.089-8.411l0.042-0.085 165.12-330.24c0.965-1.998 1.529-4.346 1.529-6.825 0-5.862-3.152-10.988-7.855-13.774l-0.074-0.041c-2.023-1.114-4.433-1.769-6.997-1.769-0.184 0-0.367 0.003-0.549 0.010l0.026-0.001z" />
<glyph unicode="&#xe908;" glyph-name="standar" d="M217.76 858.72h31.040v-883.2h-31.040v883.2zM233.28 843.2c-0.047 0-0.104 0-0.16 0-25.626 0-46.4 20.774-46.4 46.4s20.774 46.4 46.4 46.4c25.626 0 46.4-20.774 46.4-46.4v0c0 0 0 0 0 0 0-25.57-20.683-46.309-46.231-46.4h-0.009zM233.28 904.96c-8.837 0-16-7.163-16-16s7.163-16 16-16c8.837 0 16 7.163 16 16v0c0 8.837-7.163 16-16 16v0zM178.72-8.96h109.12v-31.040h-109.12v31.040zM235.040 681.6h132.64v-31.040h-132.64v31.040zM235.040 550.72h85.44v-31.040h-85.44v31.040zM837.76 403.36h-604.8v31.040h544.32l-119.84 166.4 126.72 172.8h-549.12v30.88h610.24l-149.44-203.84 141.92-197.28z" />
<glyph unicode="&#xe909;" glyph-name="gestion" d="M272.96 140h-202.080v494.080h202.080zM102.88 172h138.080v430.080h-138.080zM443.040 140h-202.080v264.8h202.080zM272.96 172h138.080v200.8h-138.080zM612.96 140h-201.92v749.12h201.92zM443.040 172h137.92v685.12h-137.92zM783.040 140h-202.080v445.92h202.080zM612.96 172h138.080v381.92h-138.080zM953.12 140h-202.080v630.88h202.080zM783.040 172h138.080v566.88h-138.080zM24 38.88h976v-32h-976v32z" />
<glyph unicode="&#xe90a;" glyph-name="techno" d="M854.080 104.96h-684.16v684h684.16zM201.92 136.96h620.16v620h-620.16zM725.6 233.28h-432v432h432zM325.6 265.28h368v368h-368zM269.76 933.92h32v-158.88h-32v158.88zM493.92 931.84h32v-158.88h-32v158.88zM718.080 931.84h32v-158.88h-32v158.88zM269.76 123.040h32v-158.88h-32v158.88zM493.92 120.96h32v-158.88h-32v158.88zM718.080 120.96h32v-158.88h-32v158.88zM841.12 688.16h158.88v-32h-158.88v32zM839.040 464h158.88v-32h-158.88v32zM448.8 464.96h122.24v-32h-122.24v32zM839.040 239.84h158.88v-32h-158.88v32zM26.080 688.16h158.88v-32h-158.88v32zM24 464h158.88v-32h-158.88v32zM24 239.84h158.88v-32h-158.88v32z" />
<glyph unicode="&#xe90b;" glyph-name="document" d="M716 521.28h-366.72c-7.443-0.802-13.187-7.050-13.187-14.64s5.744-13.838 13.122-14.634l0.065-0.006h366.72c0.46-0.051 0.993-0.080 1.533-0.080 8.13 0 14.72 6.59 14.72 14.72s-6.59 14.72-14.72 14.72c-0.54 0-1.073-0.029-1.598-0.086l0.065 0.006zM349.28 609.28h146.72c0.46-0.051 0.993-0.080 1.533-0.080 8.13 0 14.72 6.59 14.72 14.72s-6.59 14.72-14.72 14.72c-0.54 0-1.073-0.029-1.598-0.086l0.065 0.006h-146.72c-7.443-0.802-13.187-7.050-13.187-14.64s5.744-13.838 13.122-14.634l0.065-0.006zM716 404h-366.72c-7.443-0.802-13.187-7.050-13.187-14.64s5.744-13.838 13.122-14.634l0.065-0.006h366.72c0.46-0.051 0.993-0.080 1.533-0.080 8.13 0 14.72 6.59 14.72 14.72s-6.59 14.72-14.72 14.72c-0.54 0-1.073-0.029-1.598-0.086l0.065 0.006zM716 286.72h-366.72c-7.443-0.802-13.187-7.050-13.187-14.64s5.744-13.838 13.122-14.634l0.065-0.006h366.72c0.46-0.051 0.993-0.080 1.533-0.080 8.13 0 14.72 6.59 14.72 14.72s-6.59 14.72-14.72 14.72c-0.54 0-1.073-0.029-1.598-0.086l0.065 0.006zM716 169.28h-366.72c-7.443-0.802-13.187-7.050-13.187-14.64s5.744-13.838 13.122-14.634l0.065-0.006h366.72c0.46-0.051 0.993-0.080 1.533-0.080 8.13 0 14.72 6.59 14.72 14.72s-6.59 14.72-14.72 14.72c-0.54 0-1.073-0.029-1.598-0.086l0.065 0.006zM774.72 674.080v213.92h-630.72v-806.72h73.28v-73.28h630.72v592zM642.72 764.64l155.2-155.36h-155.2zM173.28 110.72v748h572.16v-154.72l-112 112h-416.16v-704zM246.56 37.28v748h366.72v-205.28h205.44v-542.72z" />
<glyph unicode="&#xe90c;" glyph-name="rar" d="M798.4 689.44l-167.040 167.2c-4.761 4.561-11.233 7.369-18.361 7.369-0.239 0-0.477-0.003-0.714-0.009l0.035 0.001h-416.96c-0.001 0-0.002 0-0.003 0-19.36 0-35.086-15.559-35.356-34.855v-762.265c0.271-19.321 15.997-34.88 35.357-34.88 0.001 0 0.002 0 0.003 0h576c19.529 0 35.36 15.831 35.36 35.36v0 603.040c-0.008 7.455-3.067 14.194-7.996 19.036l-0.004 0.004zM755.2 692.16h-121.12v121.12zM771.2 60.16h-280.8v172.32h57.44v144h-57.44v28.32h28.64v28.8h-28.64v28.8h28.64v28.64h-28.64v28.8h28.64v28.64h-28.64v28.8h-28.8v-28.8h-28.64v-28.64h28.64v-28.8h-28.64v-28.64h28.64v-28.8h-28.64v-28.8h28.64v-28.64h-57.44v-144h57.44v-172h-266.24c-0.001 0-0.001 0-0.002 0-3.623 0-6.56 2.937-6.56 6.56 0 0.056 0.001 0.112 0.002 0.168v-0.008 762.24c-0.001 0.048-0.002 0.104-0.002 0.16 0 3.623 2.937 6.56 6.56 6.56 0.001 0 0.001 0 0.002 0h410.72c-0.489-1.674-0.78-3.599-0.8-5.589v-166.731h166.72c2.062 0.033 4.041 0.323 5.927 0.839l-0.167-0.039v-597.44c0-3.711-3.009-6.72-6.72-6.72v0zM519.2 348.16v-14.4h-86.24v14.4zM432.96 304h86.080v-43.040h-86.080z" />
<glyph unicode="&#xe90d;" glyph-name="git" d="M224 878.72v-179.52h-144v-323.040h144v-358.88h502.080l215.36 215.36v646.080zM115.84 412.16v251.2h538.4v-251.2zM726.080 68v164.64h164.64zM905.6 268.48h-215.36v-215.36h-430.72v323.040h430.72v323.040h-430.72v144h646.080zM239.040 544v-22.88h20.48v-16c0.005-0.191 0.007-0.416 0.007-0.641 0-3.684-0.708-7.203-1.994-10.429l0.067 0.19c-1.158-2.996-2.842-5.555-4.961-7.681l0.001 0.001c-1.707-1.886-3.785-3.401-6.124-4.434l-0.116-0.046c-1.816-1.181-4.007-1.937-6.363-2.078l-0.037-0.002c-0.164-0.006-0.356-0.010-0.55-0.010-4.015 0-7.658 1.59-10.335 4.174l0.004-0.004c-3.056 3.331-5.335 7.426-6.516 11.963l-0.044 0.197c-1.466 5.528-2.546 12.028-3.020 18.696l-0.020 0.344c0 7.52-0.8 16-0.8 24.96-0.089 1.732-0.139 3.76-0.139 5.8 0 12.778 1.981 25.094 5.654 36.657l-0.235-0.857c1.663 7.199 8.019 12.485 15.609 12.485 0.137 0 0.275-0.002 0.411-0.005h-0.020c0.098 0.003 0.213 0.004 0.329 0.004 2.87 0 5.53-0.9 7.714-2.433l-0.043 0.029c2.208-1.691 4.028-3.766 5.387-6.14l0.053-0.1c1.405-2.398 2.509-5.178 3.164-8.127l0.036-0.193c0.599-2.64 0.948-5.676 0.96-8.792v-0.008h30.4c0.076 1.061 0.12 2.299 0.12 3.547 0 12.366-4.264 23.737-11.403 32.721l0.083-0.108c-8.341 7.969-19.668 12.874-32.141 12.874-1.641 0-3.262-0.085-4.859-0.25l0.2 0.017c-0.478 0.015-1.040 0.023-1.605 0.023-8.404 0-16.379-1.836-23.547-5.128l0.352 0.145c-6.689-3.448-12.119-8.519-15.901-14.706l-0.099-0.174c-4.088-7.059-7.062-15.304-8.429-24.081l-0.051-0.399c-1.535-9.529-2.412-20.514-2.412-31.704 0-0.779 0.004-1.557 0.013-2.334l-0.001 0.118c-0.002-0.448-0.004-0.978-0.004-1.508 0-11.867 0.641-23.585 1.889-35.121l-0.125 1.429c0.878-9.443 3.265-18.123 6.925-26.098l-0.205 0.498c3.029-6.455 7.822-11.659 13.758-15.113l0.162-0.087c6.217-3.151 13.555-4.997 21.324-4.997 0.66 0 1.316 0.013 1.97 0.040l-0.094-0.003c0.3-0.007 0.652-0.011 1.006-0.011 6.462 0 12.606 1.358 18.163 3.805l-0.289-0.114c5.693 2.911 10.278 7.29 13.358 12.645l0.082 0.155v-14.24h22.72v83.52zM332.32 614.4h31.040v-153.76h-31.040v153.76zM400 614.4v-25.44h33.6v-128h30.4v128h33.6v25.44z" />
<glyph unicode="&#xe90e;" glyph-name="circle-git" d="M510.88 1.12c-246.805 0-446.88 200.075-446.88 446.88s200.075 446.88 446.88 446.88c246.805 0 446.88-200.075 446.88-446.88v0c-0.636-246.549-200.331-446.245-446.82-446.88h-0.060zM510.88 862.88c-229.132 0-414.88-185.748-414.88-414.88s185.748-414.88 414.88-414.88c229.132 0 414.88 185.748 414.88 414.88v0c-0.635 228.876-186.004 414.245-414.819 414.88h-0.061zM510.88 254.88h-39.36c-117.76 0-185.28 66.080-185.28 181.44-0.019 0.866-0.030 1.886-0.030 2.909 0 34.293 12.415 65.687 32.996 89.931l-0.166-0.2c-0.285 4.358-0.448 9.448-0.448 14.576 0 31.266 6.039 61.121 17.014 88.463l-0.567-1.599 4.48 11.36 12.48-1.76c1.76 0 43.040-5.12 104.64-45.92 15.085 2.662 32.454 4.183 50.178 4.183 1.316 0 2.63-0.008 3.942-0.025l-0.199 0.002c1.135 0.015 2.475 0.024 3.816 0.024 17.698 0 35.040-1.522 51.904-4.442l-1.8 0.258c61.92 41.6 103.2 45.92 104.96 45.92l12.16 1.28 4.48-11.36c10.392-25.865 16.42-55.852 16.42-87.247 0-4.993-0.152-9.951-0.453-14.868l0.033 0.675c19.944-23.896 32.053-54.935 32.053-88.803 0-1.349-0.019-2.694-0.057-4.035l0.004 0.197c0-115.36-67.52-181.44-185.28-181.44zM434.4 437.92c-1.827 0.198-3.946 0.312-6.092 0.312-13.441 0-25.845-4.444-35.822-11.942l0.153 0.11c-11.413-9.968-18.584-24.547-18.584-40.8 0-0.563 0.009-1.123 0.026-1.682l-0.002 0.082c0-58.56 33.12-77.28 136.16-77.28s137.44 18.72 137.44 77.28c0.008 0.336 0.012 0.733 0.012 1.13 0 16.248-7.165 30.822-18.508 40.736l-0.063 0.054c-16 14.080-41.6 12.16-74.88 9.92-13.6-0.96-27.68-2.080-42.72-2.080v0c-16 0-29.76 1.12-43.36 2.080s-23.68 2.080-33.76 2.080zM586.88 469.92c2.199 0.192 4.758 0.301 7.343 0.301 21.558 0 41.342-7.6 56.816-20.267l-0.159 0.126c17.718-15.782 28.822-38.66 28.822-64.132 0-0.685-0.008-1.368-0.024-2.050l0.002 0.101c0.046-1.194 0.073-2.595 0.073-4.003 0-19.943-5.311-38.645-14.596-54.77l0.283 0.533c22.56 23.2 38.56 58.24 38.56 110.88 0.024 0.844 0.037 1.837 0.037 2.833 0 28.757-11.29 54.877-29.678 74.171l0.041-0.043-6.88 7.52 3.68 9.44c0.315 4.121 0.495 8.926 0.495 13.772 0 22.163-3.755 43.448-10.664 63.255l0.409-1.347c-31.993-10.013-59.83-24.235-84.663-42.331l0.823 0.571-6.24-4.16-7.2 1.92c-14.050 3.103-30.188 4.881-46.742 4.881-2.13 0-4.254-0.029-6.37-0.088l0.312 0.007c-1.778 0.050-3.871 0.078-5.971 0.078-16.584 0-32.752-1.777-48.326-5.15l1.497 0.272-7.2-1.92-6.24 4.16c-24.002 17.562-51.845 31.788-81.815 41.211l-2.025 0.549c-6.457-18.305-10.187-39.413-10.187-61.392 0-5.254 0.213-10.458 0.631-15.605l-0.044 0.676 3.84-9.44-7.2-6.88c-18.348-19.25-29.637-45.37-29.637-74.127 0-0.996 0.014-1.989 0.040-2.979l-0.003 0.146c0-52.64 15.2-87.68 38.080-110.4-9.276 15.777-14.754 34.753-14.754 55.008 0 0.968 0.013 1.932 0.037 2.894l-0.003-0.142c-0.005 0.355-0.008 0.775-0.008 1.195 0 25.585 11.162 48.562 28.881 64.329l0.087 0.076c25.44 23.2 60.96 20.8 98.72 18.080 13.12-0.96 26.56-1.92 40.48-1.92h1.76c13.92 0 27.36 0.96 40.48 1.92s23.52 2.24 34.4 2.24zM582.88 320c-25.44 0-45.44 24.96-45.44 56.8s20 56.8 45.44 56.8 45.6-24.96 45.6-56.8-20.48-56.8-45.6-56.8zM582.88 401.6c-5.44 0-13.44-9.6-13.44-24.8s8-24.8 13.44-24.8 13.6 9.76 13.6 24.8-8 25.44-13.6 25.44zM438.88 320c-25.44 0-45.44 24.96-45.44 56.8s20 56.8 45.44 56.8 45.6-24.96 45.6-56.8-20.48-56.8-45.76-56.8zM438.88 401.6c-5.44 0-13.44-9.6-13.44-24.8s8-24.8 13.44-24.8 13.6 9.76 13.6 24.8-8.16 25.44-13.76 25.44z" />
<glyph unicode="&#xe90f;" glyph-name="mobile" d="M750.56 907.84h-476c-32.129-0.091-58.149-26.112-58.24-58.231v-803.209c0.091-32.129 26.112-58.149 58.231-58.24h476.009c32.096 0.091 58.080 26.131 58.080 58.24 0 0 0 0 0 0v0 803.2c0 0 0 0 0 0 0 32.109-25.984 58.149-58.071 58.24h-0.009zM245.6 752h533.92v-592h-533.92zM274.56 878.88h476c0.001 0 0.001 0 0.002 0 15.994 0 28.96-12.966 28.96-28.96 0-0.113-0.001-0.225-0.002-0.337v0.017-68.64h-533.92v68.64c0 15.994 12.966 28.96 28.96 28.96v0zM750.56 17.44h-476c-15.994 0-28.96 12.966-28.96 28.96v0 87.52h533.92v-87.52c0-15.994-12.966-28.96-28.96-28.96v0zM512 120.96c-26.51 0-48-21.49-48-48s21.49-48 48-48c26.51 0 48 21.49 48 48v0c0 26.51-21.49 48-48 48v0zM512 44.8c-0.048 0-0.104 0-0.16 0-15.729 0-28.48 12.751-28.48 28.48s12.751 28.48 28.48 28.48c15.729 0 28.48-12.751 28.48-28.48v0c0 0 0 0 0 0 0-15.673-12.66-28.389-28.311-28.48h-0.009zM446.4 815.040h132.32c5.321 0.090 9.6 4.425 9.6 9.759 0 0 0 0.001 0 0.001v0c0.001 0.048 0.001 0.104 0.001 0.16 0 5.302-4.298 9.6-9.6 9.6 0 0-0.001 0-0.001 0h-132.32c-5.39 0-9.76-4.37-9.76-9.76v0c0.088-5.354 4.406-9.672 9.752-9.76h0.008zM411.36 815.040c2.687 0.031 5.113 1.125 6.881 2.881l-0.001-0.001c1.778 1.744 2.88 4.171 2.88 6.856 0 0.009 0 0.017 0 0.026v-0.001c0 5.39-4.37 9.76-9.76 9.76v0c-0.007 0-0.016 0-0.024 0-2.685 0-5.112-1.102-6.854-2.878l-0.002-0.002c-1.684-1.751-2.721-4.135-2.721-6.761 0-0.042 0-0.084 0.001-0.126v0.006c0.002-2.663 1.037-5.085 2.725-6.885l-0.005 0.005c1.784-1.729 4.199-2.815 6.867-2.88h0.013z" />
<glyph unicode="&#xe910;" glyph-name="news" d="M509.44 657.28h-209.44v-209.28h209.44zM480 477.92h-150.080v149.6h150.080zM823.36 657.28h-240c-8.218 0-14.88-6.662-14.88-14.88s6.662-14.88 14.88-14.88h240c8.218 0 14.88 6.662 14.88 14.88s-6.662 14.88-14.88 14.88v0zM823.36 567.52h-240c-8.218 0-14.88-6.662-14.88-14.88s6.662-14.88 14.88-14.88h240c8.218 0 14.88 6.662 14.88 14.88s-6.662 14.88-14.88 14.88v0zM823.36 477.92h-240c-0.465 0.051-1.004 0.080-1.549 0.080-8.306 0-15.040-6.734-15.040-15.040s6.734-15.040 15.040-15.040c0.546 0 1.085 0.029 1.615 0.086l-0.066-0.006h240c7.613 0.811 13.491 7.199 13.491 14.96s-5.878 14.149-13.425 14.954l-0.066 0.006zM823.36 388.16h-493.44c-0.465 0.051-1.004 0.080-1.549 0.080-8.306 0-15.040-6.734-15.040-15.040s6.734-15.040 15.040-15.040c0.546 0 1.085 0.029 1.615 0.086l-0.066-0.006h493.44c7.613 0.811 13.491 7.199 13.491 14.96s-5.878 14.149-13.425 14.954l-0.066 0.006zM554.24 298.4h-224c-0.465 0.051-1.004 0.080-1.549 0.080-8.306 0-15.040-6.734-15.040-15.040s6.734-15.040 15.040-15.040c0.546 0 1.085 0.029 1.615 0.086l-0.066-0.006h224c7.613 0.811 13.491 7.199 13.491 14.96s-5.878 14.149-13.425 14.954l-0.066 0.006zM554.24 208h-224c-0.465 0.051-1.004 0.080-1.549 0.080-8.306 0-15.040-6.734-15.040-15.040s6.734-15.040 15.040-15.040c0.546 0 1.085 0.029 1.615 0.086l-0.066-0.006h224c7.613 0.811 13.491 7.199 13.491 14.96s-5.878 14.149-13.425 14.954l-0.066 0.006zM554.24 119.040h-224c-0.465 0.051-1.004 0.080-1.549 0.080-8.306 0-15.040-6.734-15.040-15.040s6.734-15.040 15.040-15.040c0.546 0 1.085 0.029 1.615 0.086l-0.066-0.006h224c7.613 0.811 13.491 7.199 13.491 14.96s-5.878 14.149-13.425 14.954l-0.066 0.006zM628.96 89.12h209.28v209.28h-209.28zM658.88 268.48h149.6v-149.44h-149.6zM928 702.24v193.76h-717.6v-448h-149.6v-358.88c0.363-49.297 40.41-89.12 89.758-89.12 0.001 0 0.002 0 0.002 0h688c49.448 0.091 89.509 40.152 89.6 89.591v611.849s0 0 0 0.8zM898.080 866.56v-149.44h-658.080v149.44zM90.72 89.12v328.96h119.68v-328.96c0-33.049-26.791-59.84-59.84-59.84s-59.84 26.791-59.84 59.84v0zM838.24 29.44h-620.96c2.958 3.279 5.7 6.886 8.126 10.713l0.194 0.327c0.401 0.554 0.775 1.184 1.089 1.847l0.031 0.073c2.246 3.62 4.392 7.83 6.19 12.22l0.21 0.58s0 1.12 0 1.76c1.615 3.995 3.051 8.763 4.065 13.686l0.095 0.554s0 0.96 0 1.28c0.916 4.741 1.44 10.194 1.44 15.769 0 0.081 0 0.163 0 0.244v-0.013 598.72h659.36v-598.24c-0.182-32.911-26.903-59.52-59.839-59.52 0 0-0.001 0-0.001 0v0zM748.64 836.8h-358.88v-89.76h358.88zM718.72 776.96h-299.040v29.92h299.040z" />
<glyph unicode="&#xe911;" glyph-name="mail" d="M835.36 694.4h-646.72c-8.837 0-16-7.163-16-16v0-461.44c0-8.837 7.163-16 16-16v0h646.72c8.837 0 16 7.163 16 16v0 462.080c0 8.837-7.163 16-16 16v0zM819.36 269.6l-190.080 190.72-21.28-21.76 205.76-206.24h-603.36l205.6 206.24-21.6 21.76-190.4-190.72v394.080h616zM788.96 663.68l-276.96-276.96-276.8 276.96h-31.2v-12.48l297.12-297.12c2.846-2.645 6.673-4.269 10.88-4.269s8.034 1.623 10.89 4.278l-0.010-0.009 297.12 297.12v12.48z" />
<glyph unicode="&#xe912;" glyph-name="quest" d="M476.8 867.2c-231.518 0-419.2-187.682-419.2-419.2s187.682-419.2 419.2-419.2c231.518 0 419.2 187.682 419.2 419.2v0c-0.273 231.408-187.792 418.927-419.174 419.2h-0.026zM476.8 61.12c-213.53 0.182-386.56 173.324-386.56 386.88 0 213.668 173.212 386.88 386.88 386.88s386.88-173.212 386.88-386.88v0c-0.273-213.67-173.504-386.789-387.191-386.88h-0.009zM476.8 270.72c-8.837 0-16-7.163-16-16v0-32c0-8.837 7.163-16 16-16s16 7.163 16 16v0 32c0 8.837-7.163 16-16 16v0zM478.56 722.080h-1.76c-71.223 0-128.96-57.737-128.96-128.96v0c0-8.837 7.163-16 16-16s16 7.163 16 16v0c0.539 53.138 43.741 96.007 96.955 96.007 0.395 0 0.79-0.002 1.185-0.007l-0.060 0.001c52.216-1.286 94.266-43.056 95.996-95.039l0.004-0.161c0.002-0.211 0.003-0.461 0.003-0.711 0-34.033-17.71-63.93-44.416-80.978l-0.387-0.231c-41.545-28-68.506-74.874-68.506-128.046 0-0.996 0.009-1.991 0.028-2.982l-0.002 0.149v-45.76c0-8.837 7.163-16 16-16s16 7.163 16 16v0 45.6c-0.010 0.591-0.016 1.289-0.016 1.988 0 42.086 21.13 79.237 53.361 101.422l0.415 0.27c35.859 23.302 59.241 63.165 59.241 108.489 0 70.674-56.852 128.070-127.318 128.95l-0.083 0.001z" />
<glyph unicode="&#xe913;" glyph-name="bitbucket" d="M513.28 529.6v0c-19.225-0.019-36.635-7.776-49.285-20.325l0.005 0.005c-12.159-12.112-19.683-28.87-19.683-47.385 0-0.216 0.001-0.432 0.003-0.648v0.033c0.452-37.563 31.008-67.84 68.635-67.84 0.058 0 0.116 0 0.174 0h-0.009c0.070 0 0.153 0 0.236 0 19.104 0 36.393 7.768 48.881 20.318l0.003 0.003c12.253 12.103 19.842 28.903 19.842 47.476 0 0.184-0.001 0.368-0.002 0.552v-0.028c-0.362 37.633-30.953 68-68.637 68-0.057 0-0.115 0-0.172 0h0.009zM541.6 434.72c-7.202-7.311-17.209-11.841-28.275-11.841-0.072 0-0.144 0-0.216 0.001h0.011c-0.144-0.002-0.315-0.003-0.485-0.003-21.514 0-38.996 17.261-39.354 38.689v0.034c-0.003 0.165-0.004 0.36-0.004 0.555 0 10.357 4.223 19.727 11.041 26.483l0.003 0.003c7.42 7.32 17.618 11.84 28.871 11.84 0.031 0 0.063 0 0.094 0h-0.005c0.049 0 0.107 0 0.165 0 21.601 0 39.155-17.331 39.514-38.847v-0.034c0-0.005 0-0.011 0-0.018 0-10.533-4.35-20.051-11.351-26.854l-0.009-0.009zM764 304v0c-1.376 0.233-2.962 0.366-4.578 0.366-6.543 0-12.577-2.182-17.413-5.858l0.071 0.052-2.56-1.76c-4-2.72-7.84-5.44-12-7.84-23.585-14.071-50.823-26.009-79.569-34.411l-2.511-0.629c-31.14-9.351-67.23-15.649-104.481-17.554l-1.119-0.046c-8.802-0.574-19.083-0.901-29.44-0.901s-20.638 0.327-30.833 0.971l1.393-0.070c-20.605 1.249-39.6 3.642-58.194 7.167l2.834-0.447c-33.821 6.313-63.852 15.846-92.155 28.545l2.555-1.025c-19.881 8.221-36.993 17.772-52.809 29.027l0.809-0.547c-2.52 1.868-5.44 3.392-8.584 4.419l-0.216 0.061c-2.561 0.869-5.511 1.371-8.577 1.371-4.898 0-9.497-1.279-13.481-3.522l0.138 0.071c-6.294-3.851-10.805-10.092-12.291-17.43l-0.029-0.17c-0.38-1.804-0.598-3.876-0.598-6s0.218-4.196 0.632-6.197l-0.034 0.197c3.68-20 7.52-39.84 11.36-59.68l9.12-46.080 3.36-16.8c1.834-9.222 5.345-17.39 10.227-24.548l-0.147 0.228c5.429-7.974 11.72-14.824 18.868-20.664l0.172-0.136c12.13-9.482 26.006-17.601 40.909-23.733l1.171-0.427c24.554-10.876 53.12-19.407 82.933-24.211l2.027-0.269c19.172-3.608 41.708-6.077 64.672-6.859l0.768-0.021h53.6c17.76 0 35.84 2.4 53.92 4.96 25.357 3.663 47.778 8.857 69.46 15.715l-3.060-0.835c20.705 6.331 38.677 14.377 55.393 24.314l-1.153-0.634c10.702 6.217 19.909 13.488 27.959 21.877l0.041 0.043c9.551 9.579 16.433 21.824 19.432 35.522l0.088 0.478 12 60.48c4 20.32 7.84 40.64 11.68 60.96 0.267 1.707 0.419 3.676 0.419 5.68s-0.152 3.973-0.446 5.895l0.027-0.215c-1.903 11.026-10.643 19.549-21.624 21.104l-0.136 0.016zM744.96 214.72l-12-60.32c-1.852-8.584-6.158-15.963-12.138-21.58l-0.022-0.020c-6.292-6.597-13.509-12.233-21.461-16.722l-0.459-0.238c-13.782-8.29-29.691-15.415-46.468-20.556l-1.532-0.404c-17.221-5.522-38.020-10.323-59.354-13.487l-2.246-0.273c-14.562-2.245-32.214-3.962-50.105-4.761l-1.095-0.039h-49.76c-23.041 0.946-44.737 3.352-65.95 7.152l2.91-0.432c-29.268 4.662-55.521 12.468-80.195 23.221l2.115-0.821c-13.209 5.613-24.601 12.538-34.823 20.847l0.263-0.207c-5.19 4.217-9.676 9.007-13.45 14.337l-0.15 0.223c-2.733 3.96-4.744 8.64-5.723 13.688l-0.037 0.232-3.2 16c-3.2 16-6.24 30.72-9.12 45.92-3.52 18.24-7.040 36.48-10.4 55.36 15.617-10.802 33.456-20.613 52.281-28.547l1.959-0.733c27.546-12.039 59.747-21.914 93.251-28.061l2.749-0.419c17.008-2.926 37.39-5.1 58.093-6.040l1.107-0.040c9.301-0.574 20.172-0.901 31.12-0.901s21.82 0.327 32.605 0.972l-1.485-0.071c40.694 2.073 78.966 8.831 115.433 19.764l-3.433-0.884c33.805 9.715 63.277 22.639 90.543 38.882l-1.743-0.962c4.64 2.72 9.12 5.76 13.6 8.8v0c-3.52-19.2-7.36-38.72-11.040-58.080zM722.24 764.32c-7.011 3.649-15.197 6.871-23.741 9.228l-0.899 0.212c-14.94 4.611-33.057 8.635-51.617 11.288l-1.983 0.232c-21.6 3.36-44.16 5.6-69.12 7.040-11.52 0.8-23.040 1.28-35.2 1.6-8.702 0.27-18.935 0.424-29.205 0.424-25.758 0-51.291-0.967-76.563-2.867l3.367 0.203c-22.72-1.6-43.36-4-62.88-7.2-19.231-3.001-36.015-6.957-52.299-12.044l2.539 0.684c-8.999-2.691-16.741-5.899-24.070-9.783l0.71 0.343c-5.274-2.797-9.804-6.153-13.763-10.083l0.003 0.003c-5.22-4.706-8.487-11.491-8.487-19.040s3.267-14.334 8.465-19.020l0.023-0.020c3.194-3.259 6.823-6.073 10.798-8.352l0.242-0.128c4.458-2.622 9.723-5.2 15.186-7.392l0.814-0.288c15.459-5.975 33.617-10.828 52.42-13.73l1.5-0.19c26.16-4.817 57.362-8.363 89.1-9.859l1.62-0.061c12.64 0 25.28-0.96 37.76-1.28h33.44l32 1.12c21.6 0.8 44 2.56 67.040 5.44 21.831 2.69 40.844 6.226 59.45 10.797l-3.45-0.717c13.207 3.099 24.732 7.163 35.651 12.301l-1.091-0.461c6.137 2.543 11.424 5.827 16.078 9.826l-0.078-0.066c6.532 5.166 10.728 13.038 10.88 21.895v0.025c-0.307 8.653-4.472 16.274-10.818 21.233l-0.062 0.047c-3.918 3.13-8.321 6-12.991 8.428l-0.449 0.212zM708.16 728.96c-8.258-3.807-18.017-7.208-28.139-9.684l-1.141-0.236c-14.249-3.612-32.123-6.924-50.319-9.203l-2.321-0.237c-22.080-2.72-43.84-4.48-64-5.28-10.56 0-21.28 0-32-0.96h-31.040l-38.24 0.64c-32.025 1.523-61.956 4.954-91.246 10.228l4.206-0.628c-18.198 2.922-34.353 7.209-49.824 12.908l1.824-0.588c-5.103 2.119-9.258 4.157-13.277 6.408l0.637-0.328c-1.157 0.601-2.156 1.293-3.055 2.093l0.015-0.013c1.578 1.267 3.366 2.388 5.276 3.29l0.164 0.070c5.191 2.858 11.236 5.414 17.554 7.34l0.686 0.18c12.634 4.009 28.024 7.578 43.789 10.010l1.811 0.23c18.72 3.2 38.4 5.44 60.32 7.040 20.908 1.627 45.276 2.555 69.86 2.555 10.599 0 21.158-0.172 31.674-0.515l-1.534 0.040c11.36 0 22.56-0.8 33.76-1.44 24-1.44 45.76-3.68 66.4-6.88 19.264-2.741 36.141-6.429 52.548-11.217l-2.628 0.657c7.311-2.036 13.633-4.545 19.611-7.627l-0.571 0.267c2.99-1.416 5.564-3.016 7.931-4.869l-0.091 0.069c-2.362-1.824-5.046-3.43-7.911-4.701l-0.249-0.099zM513.12 582.56c-0.161 0.001-0.352 0.001-0.543 0.001-34.222 0-65.202-13.881-87.616-36.32l-0.001-0.001c-21.745-21.672-35.2-51.651-35.2-84.773 0-0.010 0-0.019 0-0.029v0.001c0.99-66.84 55.405-120.644 122.387-120.644 0.342 0 0.684 0.001 1.025 0.004h-0.052c0.136-0.001 0.297-0.001 0.458-0.001 33.721 0 64.291 13.495 86.602 35.38l-0.020-0.019c22.371 21.759 36.267 52.131 36.32 85.75v0.010c-1.079 66.859-55.531 120.644-122.545 120.644-0.343 0-0.685-0.001-1.027-0.004h0.052zM580 396.96c-17.221-16.771-40.754-27.135-66.707-27.2h-0.013c-0.336-0.004-0.733-0.007-1.131-0.007-50.925 0-92.302 40.878-93.108 91.611l-0.001 0.076c0.009 25.031 10.225 47.673 26.712 63.993l0.008 0.007c17.078 17.197 40.734 27.842 66.877 27.842 0.226 0 0.452-0.001 0.678-0.002h-0.035c0.433 0.007 0.944 0.011 1.456 0.011 50.902 0 92.282-40.772 93.262-91.44l0.001-0.092c-0.235-25.138-10.731-47.78-27.494-63.975l-0.026-0.025zM868.8 734.56c0 1.76-0.96 3.52-1.6 5.28-3.811 11.069-9.898 20.506-17.744 28.145l-0.016 0.015c-10.278 9.948-22.020 18.474-34.852 25.204l-0.828 0.396c-15.107 7.89-32.915 15.223-51.42 20.974l-2.34 0.626c-22.037 7.387-48.97 14.112-76.574 18.871l-3.426 0.489c-16 2.72-32 5.12-48 7.040s-27.2 3.040-41.44 4-25.28 1.28-37.92 2.4h-60.16l-27.68-1.44-34.88-2.080c-17.44-1.12-36.32-3.2-57.44-6.24-45.082-6.053-85.655-16.020-124.419-29.801l4.259 1.321c-20.097-7.040-37.427-15.469-53.578-25.603l1.098 0.643c-9.856-6.119-18.367-13.103-25.861-21.056l-0.059-0.064c-7.851-8.374-13.49-18.912-15.928-30.625l-0.072-0.415-1.6-3.52v-9.12l5.76-34.72c3.040-18.88 5.92-37.92 9.12-56.8 3.84-23.52 7.84-46.88 12-70.4l30.88-176c1.459-8.050 4.425-15.21 8.61-21.487l-0.13 0.207c6.11-8.818 13.25-16.364 21.374-22.71l0.226-0.17c13.455-10.686 28.702-20.142 44.994-27.732l1.406-0.588c21.446-10.173 46.622-19.067 72.808-25.369l2.712-0.551c19.609-5.146 43.581-9.589 68.049-12.405l2.511-0.235c22.771-2.751 49.139-4.321 75.874-4.321 0.382 0 0.764 0 1.145 0.001h23.301c43.754 1.256 85.52 7.018 125.69 16.846l-4.090-0.846c33.349 8.071 62.562 19.048 89.964 33.060l-2.284-1.060c14.397 7.076 26.78 14.904 38.227 23.873l-0.467-0.353c5.926 4.829 11.171 10.074 15.844 15.803l0.156 0.197c6.665 8.236 11.364 18.329 13.228 29.384l0.052 0.376c2.4 14.56 4.96 29.12 7.52 43.68l24.32 138.080c3.2 18.24 6.24 36.64 9.44 55.040s5.76 34.080 8.48 51.2c1.44 8.96 2.72 17.76 4.16 26.72l1.44 9.76 0.96 20.48zM838.4 702.56c-1.28-8.8-2.72-17.6-4.16-26.4-2.72-17.12-5.6-34.080-8.32-51.040s-6.24-36.64-9.44-54.88l-24.16-138.24c-2.72-14.56-5.28-29.12-7.68-43.84-1.025-6.155-3.575-11.585-7.247-16.059l0.047 0.059c-3.654-4.583-7.643-8.623-12.019-12.208l-0.141-0.112c-9.588-7.811-20.405-14.791-31.956-20.51l-1.004-0.45c-23.28-11.908-50.338-21.863-78.679-28.48l-2.441-0.48c-34.416-8.539-74.219-13.962-115.107-15.025l-0.733-0.015c-6.939-0.267-15.087-0.418-23.271-0.418-25.625 0-50.903 1.489-75.75 4.385l3.022-0.286c-25.632 2.895-48.408 7.113-70.61 12.771l3.57-0.771c-26.905 6.948-50.218 15.647-72.329 26.43l2.249-0.99c-15.443 7.047-28.748 15.226-40.901 24.8l0.421-0.32c-6.141 4.583-11.417 9.859-15.856 15.798l-0.144 0.202c-2.017 2.804-3.476 6.148-4.137 9.77l-0.023 0.15-30.88 176c-4 23.36-8.16 46.72-12 70.24-3.040 18.88-6.080 37.76-8.96 56.48l-4.64 29.12c-0.236 1.401-0.569 2.638-1.007 3.825l0.047-0.145v0.96c0.374 0.9 0.705 1.971 0.938 3.078l0.022 0.122c1.538 7.091 5.044 13.2 9.911 17.911l0.009 0.009c5.77 6.165 12.348 11.47 19.591 15.775l0.409 0.225c13.406 8.48 28.835 15.991 45.097 21.74l1.623 0.5c32.884 11.891 71.519 21.358 111.455 26.717l2.945 0.323c20.8 3.68 39.84 5.76 55.84 6.72 11.36 0.8 22.88 1.28 34.4 1.92h85.28l37.12-1.92c13.44 0 26.88-2.080 39.52-3.68 15.2-1.92 30.88-4.16 47.040-7.040 29.215-4.827 54.701-11.167 79.376-19.294l-3.696 1.054c18.941-5.798 35.158-12.533 50.564-20.606l-1.604 0.766c11.009-5.697 20.481-12.464 28.86-20.376l-0.060 0.056c4.698-4.345 8.402-9.693 10.779-15.711l0.101-0.289c0.027-0.407 0.043-0.882 0.043-1.36s-0.015-0.953-0.046-1.424l0.003 0.064v-10.4z" />
<glyph unicode="&#xe914;" glyph-name="contact" d="M643.040 348.32c-8.754 16.11-25.549 26.862-44.854 26.862-8.702 0-16.894-2.185-24.057-6.035l0.271 0.133c-5.573-3.042-12.207-4.831-19.259-4.831-15.581 0-29.122 8.734-35.994 21.573l-0.107 0.219-64 120.64c-3.155 5.63-5.014 12.355-5.014 19.514 0 4.463 0.722 8.757 2.056 12.772l-0.082-0.286c3.325 10.665 10.538 19.283 19.941 24.372l0.219 0.108c15.953 8.547 26.62 25.102 26.62 44.149 0 8.679-2.215 16.841-6.11 23.951l0.13-0.26-22.72 42.88c-6.149 11.322-16.27 19.83-28.45 23.743l-0.35 0.097c-4.329 1.419-9.312 2.238-14.485 2.238-8.351 0-16.204-2.133-23.044-5.883l0.249 0.125-12.32-6.56c-22.2-12.061-39.693-30.378-50.414-52.577l-0.306-0.703c-7.71-16.15-12.214-35.1-12.214-55.101 0-22.278 5.587-43.251 15.435-61.595l-0.342 0.697 122.24-230.56c19.207-35.48 53.46-60.714 93.972-67.26l0.748-0.1c5.269-0.916 11.336-1.44 17.525-1.44 0.026 0 0.053 0 0.079 0h-0.004c0.030 0 0.065 0 0.1 0 19.934 0 38.693 5.035 55.072 13.903l-0.612-0.303 12.48 6.56c15.478 8.473 25.798 24.646 25.798 43.23 0 8.356-2.087 16.225-5.767 23.114l0.129-0.264zM641.92 276.96c-1.554-5.276-5.131-9.531-9.811-11.949l-0.109-0.051-12.32-6.72c-11.859-6.417-25.96-10.188-40.942-10.188-4.808 0-9.525 0.388-14.121 1.135l0.503-0.067c-32.158 5.235-58.86 24.872-73.653 51.947l-0.267 0.533-122.24 230.080c-7.462 13.791-11.848 30.191-11.848 47.615 0 15.527 3.483 30.241 9.711 43.403l-0.263-0.618c8.357 17.329 21.598 31.189 37.933 40.087l0.467 0.233 12.16 6.4c2.773 1.511 6.073 2.4 9.58 2.4 0.007 0 0.014 0 0.021 0h-0.001c2.119-0.006 4.154-0.357 6.054-0.999l-0.134 0.039c5.29-1.531 9.582-5.041 12.108-9.656l0.052-0.104 22.72-43.040c1.606-2.947 2.55-6.454 2.55-10.181 0-8.238-4.612-15.399-11.395-19.042l-0.115-0.057c-22.269-12.035-37.143-35.209-37.143-61.857 0-12.026 3.029-23.345 8.366-33.234l-0.184 0.372 64-120.64c12.047-22.081 35.095-36.81 61.584-36.81 11.883 0 23.073 2.964 32.872 8.194l-0.376-0.183c3.045 1.686 6.677 2.678 10.54 2.678 8.434 0 15.764-4.729 19.482-11.68l0.058-0.118 22.24-42.4c1.551-2.789 2.464-6.116 2.464-9.657 0-2.269-0.375-4.45-1.066-6.485l0.042 0.142zM754.4 904.32h-529.28c-43.023-0.362-77.761-35.323-77.761-78.397 0-0.113 0-0.227 0.001-0.34v0.017-192h-49.92c-7.274-0.792-12.884-6.901-12.884-14.32s5.61-13.528 12.82-14.314l0.064-0.006h49.92v-299.68h-49.92c-0.048 0.001-0.104 0.001-0.16 0.001-7.776 0-14.080-6.304-14.080-14.080 0 0 0-0.001 0-0.001v0c-0.001-0.048-0.001-0.104-0.001-0.16 0-7.865 6.375-14.24 14.24-14.24 0 0 0.001 0 0.001 0h49.92v-206.4c0-0.096-0.001-0.209-0.001-0.323 0-43.074 34.737-78.035 77.726-78.397h529.314c42.954 0.452 77.601 35.378 77.601 78.396 0 0.114 0 0.228-0.001 0.342v-0.018 755.2c0 0.096 0.001 0.21 0.001 0.324 0 43.018-34.647 77.944-77.558 78.396h-0.043zM803.52 70.4c0.002-0.144 0.002-0.314 0.002-0.484 0-27.257-21.916-49.396-49.088-49.756h-529.314c-27.206 0.36-49.122 22.498-49.122 49.756 0 0.17 0.001 0.34 0.003 0.51v-0.026 206.4h49.92c7.796 0.090 14.081 6.431 14.081 14.239 0 0.057 0 0.113-0.001 0.169v-0.009c0.001 0.048 0.001 0.104 0.001 0.161 0 7.688-6.232 13.92-13.92 13.92-0.057 0-0.113 0-0.17-0.001h-49.911v299.52h49.92c7.274 0.792 12.884 6.901 12.884 14.32s-5.61 13.528-12.82 14.314l-0.064 0.006h-49.92v192.16c-0.002 0.144-0.002 0.314-0.002 0.484 0 27.257 21.916 49.396 49.088 49.756h529.314c27.206-0.36 49.122-22.498 49.122-49.756 0-0.17-0.001-0.34-0.003-0.51v0.026z" />
<glyph unicode="&#xe915;" glyph-name="share" d="M885.6 307.52c6.559 27.769 10.346 59.668 10.4 92.442v0.038c0.001 0.385 0.002 0.841 0.002 1.296 0 147.75-77.985 277.285-195.039 349.689l-1.763 1.015c-2.81 2.499-6.532 4.025-10.612 4.025-8.837 0-16-7.163-16-16 0-6.904 4.373-12.787 10.501-15.030l0.111-0.036c109.19-67.849 180.804-187.141 180.804-323.159 0-0.633-0.002-1.266-0.005-1.898v0.097c-0.116-29.027-3.374-57.231-9.451-84.37l0.491 2.61c-6.151 1.128-13.228 1.773-20.457 1.773-0.627 0-1.253-0.005-1.877-0.015l0.094 0.001c-61.265-0.081-110.898-49.764-110.898-111.040 0-61.326 49.714-111.040 111.040-111.040s111.040 49.714 111.040 111.040c0 42.036-23.358 78.616-57.803 97.47l-0.579 0.29zM832.8 130.24c-44.183 0-80 35.817-80 80s35.817 80 80 80c44.183 0 80-35.817 80-80v0c0-44.183-35.817-80-80-80v0zM628.96 48c-43.005-18.28-93.026-28.905-145.528-28.905-105.756 0-201.443 43.111-270.445 112.717l-0.027 0.027c19.152 19.922 30.947 47.038 30.947 76.909 0 61.326-49.714 111.040-111.040 111.040s-111.040-49.714-111.040-111.040c0-61.326 49.714-111.040 111.040-111.040 20.026 0 38.814 5.301 55.037 14.577l-0.544-0.287c75.167-77.214 180.112-125.114 296.245-125.114 56.819 0 110.959 11.466 160.234 32.21l-2.719-1.016c5.955 2.467 10.068 8.233 10.068 14.96 0 8.918-7.23 16.148-16.148 16.148-2.192 0-4.281-0.437-6.187-1.228l0.107 0.039zM54.24 209.6c0 44.183 35.817 80 80 80s80-35.817 80-80c0-44.183-35.817-80-80-80v0c-44.183 0-80 35.817-80 80v0zM85.92 412.8h1.12c0.015 0 0.033 0 0.051 0 8.386 0 15.265 6.452 15.945 14.662l0.004 0.058c11.452 161.35 122.146 294.038 270.915 338.039l2.685 0.681c14.106-46.151 56.321-79.139 106.24-79.139 61.237 0 110.88 49.643 110.88 110.88s-49.643 110.88-110.88 110.88c-61.146 0-110.732-49.495-110.88-110.607v-0.014c-166.275-46.938-288.287-191.67-300.725-366.688l-0.075-1.312c-0.020-0.302-0.032-0.654-0.032-1.009 0-8.397 6.469-15.284 14.695-15.948l0.057-0.004zM483.2 876.8c44.183 0 80-35.817 80-80s-35.817-80-80-80c-44.183 0-80 35.817-80 80v0c0 44.183 35.817 80 80 80v0z" />
<glyph unicode="&#xe916;" glyph-name="facebook" d="M827.2 855.68h-679.2c-0.191 0.002-0.417 0.003-0.643 0.003-37.202 0-67.36-30.158-67.36-67.36 0-0.226 0.001-0.452 0.003-0.678v0.034-679.36c-0.002-0.191-0.003-0.417-0.003-0.643 0-37.202 30.158-67.36 67.36-67.36 0.226 0 0.452 0.001 0.678 0.003h679.166c0.43-0.010 0.936-0.015 1.443-0.015 37.202 0 67.36 30.158 67.36 67.36 0 0.23-0.001 0.461-0.003 0.691v-0.035 679.36c0.002 0.195 0.003 0.425 0.003 0.655 0 37.202-30.158 67.36-67.36 67.36-0.507 0-1.014-0.006-1.518-0.017l0.075 0.001zM487.68 67.52v272h-108.8v108.48h108.8v95.040c0.082 78.009 59.606 142.090 135.711 149.393l0.609 0.047h122.24v-108.64h-109.12c-0.241 0.005-0.524 0.008-0.808 0.008-22.091 0-40-17.909-40-40 0-0.284 0.003-0.568 0.009-0.85l-0.001 0.042v-95.040h135.84v-108.64h-135.84v-272zM868 108.32c0.005-0.241 0.008-0.524 0.008-0.808 0-22.091-17.909-40-40-40-0.284 0-0.568 0.003-0.85 0.009l0.042-0.001h-203.2v244.64h135.84v163.040h-135.84v67.84c-0.017 0.247-0.027 0.536-0.027 0.827 0 7.069 5.731 12.8 12.8 12.8 0.291 0 0.579-0.010 0.866-0.029l-0.039 0.002h135.84v163.36h-151.36c-90.517-8.736-160.821-84.037-161.599-175.921l-0.001-0.079v-68.8h-108.48v-163.040h108.8v-244.64h-312.8c-0.241-0.005-0.524-0.008-0.808-0.008-22.091 0-40 17.909-40 40 0 0.284 0.003 0.568 0.009 0.85l-0.001-0.042v679.36c-0.005 0.241-0.008 0.524-0.008 0.808 0 22.091 17.909 40 40 40 0.284 0 0.568-0.003 0.85-0.009l-0.042 0.001h679.2c0.241 0.005 0.524 0.008 0.808 0.008 22.091 0 40-17.909 40-40 0-0.284-0.003-0.568-0.009-0.85l0.001 0.042z" />
<glyph unicode="&#xe917;" glyph-name="twitter" d="M342.24 94.88c-92.407 0.283-178.705 26.188-252.235 70.98l2.155-1.22-54.4 32 64-1.12h10.24c66.116 0.971 127.897 18.65 181.578 48.986l-1.898-0.986c-60.354 18.493-107.358 63.971-127.587 121.998l-0.413 1.362-9.92 29.76 27.2-7.2c-43.434 33.406-72.017 84.271-75.178 141.908l-0.022 0.492-2.080 28.16 25.28-11.040c3.699-1.734 8.31-3.525 13.046-5.039l0.874-0.241c-23.541 31.508-37.693 71.227-37.693 114.251 0 35.212 9.479 68.21 26.024 96.582l-0.492-0.913 12.32 22.72 16-20.48c73.341-94.58 183.938-157.246 309.394-165.847l1.326-0.073c-0.8 7.52-1.28 14.56-1.28 16.8-0.001 0.199-0.001 0.434-0.001 0.669 0 102.151 82.809 184.96 184.96 184.96 50.963 0 97.113-20.612 130.566-53.954l-0.005 0.005c34.526 9.382 64.735 22.397 92.55 39.004l-1.67-0.924 40 24.64-15.040-44.48c-7.674-22.284-18.544-41.564-32.271-58.424l0.271 0.344c9.288 2.93 16.919 5.915 24.312 9.326l-1.272-0.526 48 23.52-21.12-42.88c-17.392-36.207-44.98-65.185-79.030-83.834l-0.97-0.486c7.68-118.72-41.12-251.2-128.96-348.48-88.41-98.417-216.090-160.037-358.162-160.037-2.109 0-4.215 0.014-6.317 0.041l0.319-0.003zM164 165.92c52.453-23.637 113.675-37.56 178.109-37.919l0.131-0.001h2.88c1.834-0.027 3.999-0.042 6.168-0.042 132.098 0 250.842 57.173 332.838 148.123l0.354 0.399c84.48 93.6 130.24 221.6 119.52 334.080l-1.12 13.44 10.88 4.96c17.645 8.475 32.688 19.477 45.386 32.743l0.054 0.057c-13.233-3.445-29.536-6.479-46.162-8.462l-1.838-0.178-12.96-1.44-10.24 25.6 11.84 9.12c16.691 9.923 30.795 22.294 42.319 36.805l0.241 0.315c-17.652-7.968-38.357-14.754-59.883-19.318l-2.037-0.362-9.28-1.6-6.4 6.88c-27.784 30.426-67.623 49.44-111.903 49.44-0.034 0-0.069 0-0.103 0h0.005c-0.382 0.004-0.834 0.006-1.287 0.006-82.71 0-149.76-67.050-149.76-149.76 0-0.508 0.003-1.016 0.008-1.523l-0.001 0.077c0-4.48 2.24-24.96 3.040-30.24l7.68-21.92h-24.48c-135.396 2.789-256.088 63.452-338.732 158.173l-0.468 0.547c-33.92-88.96 23.040-160 50.24-181.44l39.84-32-50.56 0.8c-16.557 0.29-32.446 2.607-47.599 6.714l1.359-0.314c13.908-60.419 60.858-107.048 120.383-120.283l1.057-0.197 66.88-14.24-65.12-17.76c-11.305-3.152-24.288-4.964-37.693-4.964-0.361 0-0.722 0.001-1.082 0.004h0.055c-6.72 0-13.12 0-18.88 0.96 26.78-45.935 74.655-77.021 129.999-79.983l0.401-0.017 48-2.4-38.88-28.8c-51.363-37.89-113.516-64.194-181.042-73.828l-2.158-0.252z" />
<glyph unicode="&#xe918;" glyph-name="linkedin" d="M320 69.12h-183.84v517.28h183.84zM169.6 103.040h116.64v449.6h-116.16zM227.84 618.72c-57.526 0-104.16 46.634-104.16 104.16s46.634 104.16 104.16 104.16c57.526 0 104.16-46.634 104.16-104.16 0-0.056 0-0.112 0-0.169v0.009c-0.091-57.457-46.69-104-104.16-104 0 0 0 0 0 0v0zM227.84 792.96c-38.792 0-70.24-31.448-70.24-70.24s31.448-70.24 70.24-70.24c38.792 0 70.24 31.448 70.24 70.24v0c-0.091 38.756-31.484 70.149-70.231 70.24h-0.009zM883.84 69.12h-184.32v252c0 75.52-9.12 112-61.28 112s-73.28-30.080-73.28-107.2v-256h-183.84v516.48h177.92v-36.48c32.405 29.793 75.819 48.055 123.499 48.055 1.583 0 3.16-0.020 4.733-0.060l-0.233 0.005c173.76 0 197.12-125.12 197.12-247.36v-281.44zM733.6 103.040h116.32v248.16c0 131.84-27.36 213.44-163.36 213.44-1.874 0.089-4.070 0.139-6.278 0.139-51.468 0-96.531-27.429-121.367-68.466l-0.356-0.633-4.64-9.12h-28.8v66.080h-110.24v-449.6h116.32v222.24c0 38.56 0 140.96 107.040 140.96 96 0 96-94.4 96-145.12v-218.080z" />
<glyph unicode="&#xe919;" glyph-name="youtube" d="M539.040 160v0c-91.84 0-192 2.88-296.96 8.64-62.729 4.14-112.63 53.819-117.097 116.076l-0.023 0.404c-5.5 49.052-8.638 105.92-8.638 163.52s3.138 114.466 9.252 170.438l-0.613-6.918c4.768 62.538 54.512 112.062 116.719 116.457l0.401 0.023c83.002 5.503 179.935 8.64 277.6 8.64s194.598-3.136 290.703-9.314l-13.103 0.674c62.852-3.856 112.913-53.695 117.1-116.1l0.020-0.38c5.504-49.029 8.643-105.868 8.643-163.44s-3.14-114.411-9.257-170.354l0.614 6.914c-4.191-62.77-54.156-112.624-116.594-116.621l-0.366-0.019c-80-5.76-166.72-8.64-258.4-8.64zM517.6 705.6c-91.52 0-183.52-2.88-273.6-8.48-47.689-3.247-85.512-41.347-88.308-88.862l-0.012-0.258c-5.333-47.995-8.374-103.642-8.374-160s3.042-112.005 8.97-166.787l-0.596 6.787c2.59-47.779 40.464-85.929 87.886-88.946l0.274-0.014c104.64-5.6 204-8.48 295.2-8.48s177.12 2.88 256 8.48c47.527 3.641 85.173 41.398 88.622 88.647l0.018 0.313c5.335 47.995 8.378 103.642 8.378 160s-3.043 112.007-8.974 166.788l0.596-6.788c-2.959 47.675-40.713 85.65-88.022 88.943l-0.298 0.017c-92.8 5.6-186.4 8.48-277.76 8.48zM440.8 557.76v-212.64l204.16 105.6z" />
<glyph unicode="&#xe91a;" glyph-name="ladm" d="M360.16-27.84c28.491-6.883 61.202-10.83 94.834-10.83 228.863 0 415.037 182.776 420.516 410.321l0.010 0.509c0.006 0.202 0.010 0.44 0.010 0.679 0 6.457-2.567 12.314-6.735 16.606l0.006-0.006c-4.284 4.442-10.288 7.2-16.937 7.2-0.008 0-0.016 0-0.025 0h-143.999c-10.979-0.087-19.846-9.008-19.846-19.999 0-0.169 0.002-0.337 0.006-0.505v0.025-27.84c0.051-0.654 0.080-1.417 0.080-2.187 0-16.524-13.396-29.92-29.92-29.92s-29.92 13.396-29.92 29.92c0 0.769 0.029 1.532 0.086 2.287l-0.006-0.1v27.84c0 0.001 0 0.002 0 0.003 0 11.046-8.954 20-20 20-0.113 0-0.225-0.001-0.337-0.003h-138.543v123.36h18.24c0.023 0 0.050 0 0.078 0 31.803 0 57.78 24.943 59.436 56.333l0.006 0.147c0.017 0.525 0.026 1.142 0.026 1.761 0 32.327-26.123 58.553-58.41 58.719h-19.376v141.92c-0.090 13.187-10.8 23.842-23.999 23.842-0.113 0-0.225-0.001-0.338-0.002h0.017c-227.989-5.46-410.722-191.573-410.722-420.367 0-179.35 112.289-332.475 270.399-392.905l2.883-0.968zM317.6 14.72c-145.081 56.294-247.307 192.094-253.577 352.533l-0.023 0.747h138.72c11.046 0 20 8.954 20 20v0 28c0 0.054-0.001 0.117-0.001 0.181 0 16.436 13.324 29.76 29.76 29.76 0.394 0 0.786-0.008 1.177-0.023l-0.056 0.002c16.104-0.956 28.802-14.25 28.802-30.509 0-0.13-0.001-0.26-0.002-0.39v0.020-26.88c0-0.049-0.001-0.107-0.001-0.166 0-10.877 8.683-19.726 19.496-19.994h139.065v-130.4h-19.36c-32.253 0-58.4-26.147-58.4-58.4s26.147-58.4 58.4-58.4h19.36v-130.24c-26.851 0.891-52.407 4.284-77.091 9.961l2.691-0.521zM440.96 528v-131.84h-130.4v18.24c0 0.023 0 0.050 0 0.078 0 31.714-24.871 57.62-56.173 59.276l-0.147 0.006c-0.622 0.024-1.352 0.037-2.085 0.037-32.074 0-58.125-25.785-58.555-57.757v-19.241h-129.6c9.29 204.312 172.633 367.599 376.11 376.77l0.85 0.030v-145.92c0.18-10.907 9.064-19.68 19.997-19.68 0.001 0 0.002 0 0.003 0h27.84c8.446-0.004 16.060-3.565 21.426-9.265l0.014-0.015c5.199-5.234 8.412-12.445 8.412-20.408 0-0.814-0.034-1.62-0.099-2.417l0.007 0.104c-0.956-16.104-14.25-28.802-30.509-28.802-0.13 0-0.26 0.001-0.39 0.002h-26.7c-0.005 0-0.010 0-0.016 0-10.764 0-19.542-8.504-19.983-19.16l-0.001-0.040zM469.44-9.76v137.76c0 11.046-8.954 20-20 20v0h-27.84c-16.524 0-29.92 13.396-29.92 29.92s13.396 29.92 29.92 29.92v0h27.84c11.046 0 20 8.954 20 20v0 140.16h130.4v-19.2c0-32.253 26.147-58.4 58.4-58.4s58.4 26.147 58.4 58.4v0 19.2h130.24c-8.734-204.912-172.559-368.848-376.616-377.731l-0.824-0.029zM757.28 899.2c-47.032 21.271-101.861 34.169-159.566 35.353l-0.434 0.007c-0.239 0.009-0.519 0.014-0.801 0.014-12.99 0-23.52-10.53-23.52-23.52 0-0.061 0-0.122 0.001-0.183v0.009-150.72c0-0.048-0.001-0.104-0.001-0.16 0-10.957 8.883-19.84 19.84-19.84 0 0 0 0 0.001 0h26.56c0.445 0.023 0.967 0.036 1.491 0.036 13.16 0 24.378-8.319 28.681-19.985l0.068-0.212c0.997-2.864 1.573-6.165 1.573-9.6 0-16.603-13.452-30.065-30.052-30.080h-27.841c0 0 0 0-0.001 0-10.957 0-19.84-8.883-19.84-19.84 0-0.056 0-0.112 0.001-0.169v0.009-136.64c0 0 0 0 0-0.001 0-13.11 10.583-23.749 23.671-23.839h135.209v-17.76c-0.005-0.275-0.007-0.6-0.007-0.925 0-11.481 3.216-22.211 8.797-31.339l-0.15 0.264c10.504-16.725 28.851-27.68 49.756-27.68 0.001 0 0.003 0 0.004 0h2.080c31.449 1.662 56.32 27.568 56.32 59.282 0 0.027 0 0.055 0 0.082v-0.004 18.24h135.040c0.001 0 0.003 0 0.005 0 13.166 0 23.84 10.674 23.84 23.84 0 0.169-0.002 0.337-0.005 0.505v-0.025c-1.882 75.876-23.523 146.319-59.942 206.863l1.062-1.903c-36.612 60.523-85.987 109.847-144.666 145.337l-1.894 1.063zM788 851.2c111.969-66.982 186.853-185.87 191.344-322.57l0.016-0.63h-144c-7.865 0-14.24-6.375-14.24-14.24v0-32c0.001-0.11 0.002-0.24 0.002-0.371 0-16.259-12.698-29.553-28.718-30.505l-0.084-0.004c-0.528-0.033-1.145-0.052-1.766-0.052-16.229 0-29.425 12.991-29.754 29.142v34.271c0 7.865-6.375 14.24-14.24 14.24v0h-144v123.52h17.92c0.19-0.002 0.415-0.004 0.64-0.004 32.255 0 58.404 26.148 58.404 58.404 0 32.030-25.785 58.038-57.729 58.4h-19.234v137.12c52.468-1.823 101.704-13.715 146.472-33.791l-2.472 0.991z" />
<glyph unicode="&#xe91b;" glyph-name="course" d="M177.92 494.56l96.96-46.56v-77.6c-0.010-0.213-0.015-0.462-0.015-0.713 0-6.696 3.88-12.485 9.515-15.243l0.1-0.044 185.28-88.8c2.040-1.012 4.443-1.604 6.983-1.604 0.132 0 0.264 0.002 0.396 0.005h31.18c0.050-0.001 0.108-0.001 0.167-0.001 2.612 0 5.085 0.59 7.295 1.645l-0.102-0.044 184.8 89.12c3.589 1.674 6.394 4.53 7.96 8.058l0.040 0.102c0.030 0.24 0.048 0.518 0.048 0.8s-0.017 0.56-0.051 0.833l0.003-0.033c0.91 1.948 1.44 4.229 1.44 6.634 0 0.030 0 0.060 0 0.090v-0.005 76.8l26.4 12.8v-105.28c-5.688-3.783-9.961-9.299-12.099-15.786l-0.061-0.214-15.040-49.12c-0.951-2.745-1.5-5.908-1.5-9.2s0.549-6.455 1.561-9.404l-0.061 0.204 13.92-42.88c3.993-12.347 15.388-21.12 28.832-21.12 0.045 0 0.090 0 0.135 0h0.953c0.046 0 0.101 0 0.155 0 12.817 0 23.782 7.932 28.253 19.155l0.072 0.205 16 40.8c1.369 3.355 2.164 7.247 2.164 11.325 0 3.034-0.44 5.964-1.259 8.732l0.055-0.217-14.4 50.56c-2.114 7.019-6.466 12.824-12.213 16.731l-0.107 0.069v121.6l36.64 17.76c5.703 2.53 9.609 8.143 9.609 14.668 0 0.187-0.003 0.373-0.010 0.559l0.001-0.027v13.6c0.010 0.213 0.015 0.462 0.015 0.713 0 6.696-3.88 12.485-9.515 15.243l-0.1 0.044-308.16 147.52c-2.177 1.062-4.736 1.684-7.44 1.684s-5.263-0.621-7.543-1.729l0.103 0.045-307.36-148c-5.739-2.89-9.608-8.735-9.608-15.483 0-0.182 0.003-0.363 0.008-0.543l-0.001 0.026v-13.76c-0.005-0.154-0.008-0.335-0.008-0.517 0-6.748 3.868-12.593 9.509-15.438l0.099-0.045zM753.92 248l-10.72 32.96 11.36 37.12 11.52-39.040zM677.12 380.96l-172.8-83.040h-23.36l-172.16 83.040v51.040l176-84.96c2.157-1.156 4.719-1.835 7.44-1.835s5.283 0.679 7.526 1.877l-0.086-0.042 176 84.96zM493.28 652.96l282.56-136-87.84-41.92-2.24-0.96-193.6-93.12-281.92 135.84z" />
<glyph unicode="&#xe91c;" glyph-name="show" d="M815.040 720h-284.32v12.48c0 10.604-8.596 19.2-19.2 19.2s-19.2-8.596-19.2-19.2v0-12.48h-284.32v-101.44h32v-347.68h233.6l-71.68-96c-2.397-3.169-3.84-7.176-3.84-11.52 0-6.26 2.996-11.82 7.632-15.325l0.048-0.035c2.807-2.242 6.329-3.7 10.176-3.996l0.064-0.004c0.212-0.008 0.461-0.013 0.71-0.013 6.242 0 11.782 3.003 15.254 7.644l0.036 0.050 60.32 80v-68.96c0-10.604 8.596-19.2 19.2-19.2s19.2 8.596 19.2 19.2v0 69.92l60.16-80c3.54-4.684 9.1-7.68 15.36-7.68 4.344 0 8.351 1.443 11.568 3.875l-0.048-0.035c4.684 3.54 7.68 9.1 7.68 15.36 0 4.344-1.443 8.351-3.875 11.568l0.035-0.048-71.84 96h234.24v346.72h32zM246.24 656v25.6h530.4v-25.6zM745.12 309.12h-467.2v309.28h467.2zM353.6 460.48h284.32c9.823 0.926 17.449 9.133 17.449 19.12s-7.626 18.194-17.372 19.114l-0.077 0.006h-284.32c-0.525 0.051-1.134 0.080-1.751 0.080-10.604 0-19.2-8.596-19.2-19.2s8.596-19.2 19.2-19.2c0.616 0 1.226 0.029 1.828 0.086l-0.077-0.006zM353.6 523.68h62.4c0.525-0.051 1.134-0.080 1.751-0.080 10.604 0 19.2 8.596 19.2 19.2s-8.596 19.2-19.2 19.2c-0.616 0-1.226-0.029-1.828-0.086l0.077 0.006h-62.4c-0.525 0.051-1.134 0.080-1.751 0.080-10.604 0-19.2-8.596-19.2-19.2s8.596-19.2 19.2-19.2c0.616 0 1.226 0.029 1.828 0.086l-0.077-0.006zM353.6 397.28h189.44c0.525-0.051 1.134-0.080 1.751-0.080 10.604 0 19.2 8.596 19.2 19.2s-8.596 19.2-19.2 19.2c-0.616 0-1.226-0.029-1.828-0.086l0.077 0.006h-189.44c-0.525 0.051-1.134 0.080-1.751 0.080-10.604 0-19.2-8.596-19.2-19.2s8.596-19.2 19.2-19.2c0.616 0 1.226 0.029 1.828 0.086l-0.077-0.006z" />
<glyph unicode="&#xe91d;" glyph-name="layers" d="M516 357.12l-503.52 300.32 503.84 282.72 506.4-291.52zM76.32 656l440-262.4 442.24 255.040-442.56 254.72zM514.72 157.12l-514.56 297.12 202.24 117.6 16-27.68-154.4-89.92 450.72-260.16 445.28 257.44-147.68 85.28 16 27.84 195.68-113.28-509.28-294.24zM514.72-44.32l-514.56 297.12 202.24 117.6 16-27.68-154.4-89.92 450.72-260.16 445.28 257.44-147.68 85.44 16 27.68 195.68-113.12-509.28-294.4z" />
<glyph unicode="&#xe91e;" glyph-name="delete" d="M669.6 852.48h-32v59.52h-251.2v-59.52h-32v91.52h315.2v-91.52zM925.76 688h-827.52v121.12h827.52zM130.24 720h763.52v57.12h-763.52zM852.96-48h-679.2v703.68h32v-671.68h615.2v671.68h32v-703.68zM365.28 640.8h32v-550.080h-32v550.080zM494.72 640.8h32v-550.080h-32v550.080zM626.72 640.8h32v-550.080h-32v550.080z" />
<glyph unicode="&#xe91f;" glyph-name="metadata" d="M449.12 699.84h-296.16v151.84h296.16zM184.96 731.84h232.16v87.84h-232.16zM869.76 699.84h-296.16v151.84h296.16zM605.6 731.84h232.16v87.84h-232.16zM654.56 288.96h-288v442.88h288zM398.56 320.96h224v378.88h-224zM397.76 44.32h-381.76v257.12l86.72 344.8h94.24v85.6h200.8zM48 76.32h317.76v624h-136.8v-85.6h-100.96l-80-319.040zM32 164.32h349.76v-32h-349.76v32zM1008 44.32h-384v688h201.76v-85.6h95.040l87.2-349.12zM656 76.32h320v219.2l-80 318.72h-102.24v85.6h-137.76zM639.84 164.32h352.16v-32h-352.16v32z" />
<glyph unicode="&#xe920;" glyph-name="plus" d="M496 928h32v-960h-32v960zM32 458.88h960v-32h-960v32z" />
<glyph unicode="&#xe921;" glyph-name="minus" d="M32 464h960v-32h-960v32z" />
<glyph unicode="&#xe922;" glyph-name="close" d="M25.725-15.624l954.877 954.877 22.627-22.627-954.877-954.877-22.627 22.627zM20.765 911.624l22.627 22.627 954.877-954.877-22.627-22.627-954.877 954.877z" />
<glyph unicode="&#xe923;" glyph-name="edit" d="M291.36 278.56l35.84 169.44 502.080 502.56 134.24-134.56-502.080-501.6zM356.64 432l-23.84-112 112.8 23.68 472.64 472.32-88.96 89.44zM735.183 834.074l22.627 22.627 111.553-111.553-22.627-22.627-111.553 111.553zM954.88-48h-887.68v887.84h508.48v-32.16h-476.48v-823.68h823.68v656.8h32v-688.8z" />
<glyph unicode="&#xe924;" glyph-name="ruler" d="M1008 210.4h-992v475.2h992zM48 242.4h928v411.2h-928zM339.040 669.6h32v-189.28h-32v189.28zM177.6 669.6h32v-106.080h-32v106.080zM657.6 667.2h32v-189.28h-32v189.28zM496 667.2h32v-106.080h-32v106.080zM809.92 667.2h32v-106.080h-32v106.080z" />
<glyph unicode="&#xe925;" glyph-name="refresh" d="M46.88 275.2c-19.836 51.538-31.325 111.165-31.325 173.475 0 273.933 222.067 496 496 496 153.42 0 290.57-69.656 381.552-179.067l0.653-0.808-24.64-20.48c-85.72 102.958-213.93 168.013-357.334 168.013-256.26 0-464-207.74-464-464 0-58.159 10.7-113.818 30.239-165.118l-1.065 3.185zM897.44 738.56h-124v32h92v92.16h32v-124.16zM512-48c-0.167 0-0.366 0-0.565 0-152.974 0-289.741 69.385-380.548 178.401l-0.647 0.799 24.64 20.48c85.721-103.010 213.963-168.102 357.408-168.102 256.26 0 464 207.74 464 464 0 58.073-10.668 113.653-30.152 164.889l1.064-3.187 29.92 11.2c19.603-51.257 30.955-110.543 30.955-172.48 0-273.933-222.067-496-496-496-0.026 0-0.053 0-0.079 0h0.004zM158.56 33.28h-32v124.16h124v-32h-92v-92.16z" />
<glyph unicode="&#xe926;" glyph-name="map" d="M16-18.24v812.8l348.8 70.72 3.2-1.28 301.6-64 338.4 116.8v-780.96l-336-128-307.2 51.2zM48 768v-746.56l316.32 69.6 304-50.72 307.68 117.44v714.24l-304-104-307.36 64zM348.64 846.56h32v-774.080h-32v774.080zM654.72 784.16h32v-758.080h-32v758.080z" />
<glyph unicode="&#xe927;" glyph-name="info" d="M510.080 670.080c-75.641 0-136.96 61.319-136.96 136.96s61.319 136.96 136.96 136.96c75.641 0 136.96-61.319 136.96-136.96v0c-0.091-75.604-61.356-136.869-136.951-136.96h-0.009zM510.080 912c-57.968 0-104.96-46.992-104.96-104.96s46.992-104.96 104.96-104.96c57.968 0 104.96 46.992 104.96 104.96v0c-0.091 57.931-47.029 104.869-104.951 104.96h-0.009zM692.48-48h-360.96v134.080h56.8v384h-56.8v121.92h304v-505.92h56.8zM363.52-16h296.96v70.080h-56.8v505.92h-240v-58.72h56.8v-448h-56.96z" />
<glyph unicode="&#xe928;" glyph-name="net" d="M128 83.68c-61.856 0-112 50.144-112 112s50.144 112 112 112c61.856 0 112-50.144 112-112v0c0-61.856-50.144-112-112-112v0zM128 275.68c-44.183 0-80-35.817-80-80s35.817-80 80-80c44.183 0 80 35.817 80 80v0c0.001 0.143 0.001 0.311 0.001 0.48 0 44.183-35.817 80-80 80 0 0-0.001 0-0.001 0v0zM348.64 464c-61.856 0-112 50.144-112 112s50.144 112 112 112c61.856 0 112-50.144 112-112v0c0-61.856-50.144-112-112-112v0zM348.64 656c-44.183 0-80-35.817-80-80s35.817-80 80-80c44.183 0 80 35.817 80 80v0c0 44.183-35.817 80-80 80v0zM685.44 136.96c-61.856 0-112 50.144-112 112s50.144 112 112 112c61.856 0 112-50.144 112-112v0c0-61.856-50.144-112-112-112v0zM685.44 328.96c-44.183 0-80-35.817-80-80s35.817-80 80-80c44.183 0 80 35.817 80 80v0c0.001 0.143 0.001 0.311 0.001 0.48 0 44.183-35.817 80-80 80 0 0-0.001 0-0.001 0v0zM896 587.84c-61.856 0-112 50.144-112 112s50.144 112 112 112c61.856 0 112-50.144 112-112v0c0-61.856-50.144-112-112-112v0zM896 779.84c-44.183 0-80-35.817-80-80s35.817-80 80-80c44.183 0 80 35.817 80 80v0c0.001 0.143 0.001 0.311 0.001 0.48 0 44.183-35.817 80-80 80 0 0-0.001 0-0.001 0v0zM160.348 287.979l131.798 210.268 27.114-16.995-131.798-210.268-27.114 16.995zM403.494 493.449l22.031 23.208 200.054-189.911-22.031-23.208-200.054 189.911zM706.684 345.030l139.489 273.526 28.507-14.538-139.489-273.526-28.507 14.538z" />
<glyph unicode="&#xe929;" glyph-name="target" d="M510.88 79.040c-203.702 0.091-368.8 165.245-368.8 368.96 0 203.771 165.189 368.96 368.96 368.96s368.96-165.189 368.96-368.959v-0.001c-0.182-203.754-165.353-368.869-369.111-368.96h-0.009zM510.88 784.96c-186.029-0.091-336.8-150.918-336.8-336.96 0-186.098 150.862-336.96 336.96-336.96s336.96 150.862 336.96 336.96v0c-0.182 186.081-151.027 336.869-337.112 336.96h-0.008zM494.88 924.8h32v-252h-32v252zM494.88 223.2h32v-252h-32v252zM32 466.080h252v-32h-252v32zM740 464h252v-32h-252v32z" />
<glyph unicode="&#xe92a;" glyph-name="point" d="M512 336c-61.856 0-112 50.144-112 112s50.144 112 112 112c61.856 0 112-50.144 112-112v0c0-61.856-50.144-112-112-112v0zM512 528c-44.183 0-80-35.817-80-80s35.817-80 80-80c44.183 0 80 35.817 80 80v0c0 44.183-35.817 80-80 80v0z" />
<glyph unicode="&#xe92b;" glyph-name="line" d="M161.494 131.943l672.034 672.034 22.627-22.627-672.034-672.034-22.627 22.627zM912 752c-53.019 0-96 42.981-96 96s42.981 96 96 96c53.019 0 96-42.981 96-96v0c0-53.019-42.981-96-96-96v0zM912 912c-35.346 0-64-28.654-64-64s28.654-64 64-64c35.346 0 64 28.654 64 64v0c0 35.346-28.654 64-64 64v0zM112-48c-53.019 0-96 42.981-96 96s42.981 96 96 96c53.019 0 96-42.981 96-96v0c0-53.019-42.981-96-96-96v0zM112 112c-35.346 0-64-28.654-64-64s28.654-64 64-64c35.346 0 64 28.654 64 64v0c0 35.346-28.654 64-64 64v0z" />
<glyph unicode="&#xe92c;" glyph-name="area" d="M846.88 39.2h-670.88v14.56c-1.535 16.887-9.42 31.685-21.216 42.184l-0.064 0.056-12.48 11.2 711.36 710.72 11.2-12.48c11.149-12.515 27.035-20.603 44.818-21.435l0.142-0.005h16v-672h-16c-32.481-1.038-58.788-26.127-61.741-57.987l-0.019-0.253zM204.8 71.2h614.080c9.34 35.724 37.853 62.955 73.621 70.294l0.619 0.106v612.8c-15.194 3.122-28.559 9.439-39.898 18.243l0.218-0.163-665.76-665.76c7.736-10.038 13.644-21.922 16.972-34.843l0.148-0.677zM912 752h-3.84l1.6 32h3.040c35.136 0.276 63.513 28.823 63.513 63.998 0 35.346-28.654 64-64 64s-64-28.654-64-64c0-16.52 6.259-31.579 16.536-42.933l-0.049 0.055-23.68-21.12c-15.169 16.905-24.444 39.368-24.444 63.998 0 53.019 42.981 96 96 96s96-42.981 96-96c0-53.019-42.981-96-96-96-0.238 0-0.475 0.001-0.713 0.003h0.037zM908.64 752c-26.896 1.188-50.756 13.27-67.439 31.908l-0.081 0.092 23.68 21.44c11.149-12.515 27.035-20.603 44.818-21.435l0.142-0.005zM112-48c-0.169-0.001-0.369-0.002-0.568-0.002-53.019 0-96 42.981-96 96s42.981 96 96 96c24.9 0 47.585-9.48 64.645-25.027l-0.076 0.069-21.28-23.040c-11.277 10.142-26.274 16.344-42.719 16.344-35.346 0-64-28.654-64-64s28.654-64 64-64c35.225 0 63.804 28.458 63.999 63.637v0.019s0 1.6 0 2.4v3.36l32 2.88v-1.92c0.075-1.005 0.118-2.178 0.118-3.36s-0.043-2.355-0.127-3.516l0.009 0.156c0-53.019-42.981-96-96-96v0zM176 53.76c-1.535 16.887-9.42 31.685-21.216 42.184l-0.064 0.056 21.28 23.040c17.732-15.519 29.576-37.382 31.97-62.013l0.030-0.387zM912-48c-53.019 0-96 42.981-96 96v0c-0.079 1.053-0.124 2.281-0.124 3.52s0.045 2.467 0.133 3.683l-0.009-0.163v2.080l32-3.2v-3.040c0-0.96 0-1.92 0-2.88 0-35.346 28.654-64 64-64s64 28.654 64 64c0 35.346-28.654 64-64 64v0h-1.92l-1.12 32h3.040c53.019 0 96-42.981 96-96s-42.981-96-96-96v0zM848 53.76l-32 3.040c4.535 48.101 43.968 85.652 92.489 87.196l0.151 0.004 0.96-32c-32.413-1.12-58.635-26.18-61.581-57.988l-0.019-0.252z" />
<glyph unicode="&#xe92d;" glyph-name="user" d="M808.48 72.48s-76.16 40.48-133.12 70.080c-64.8 33.6-64 75.52-63.040 80v70.72l5.28 4.64c28.32 26.24 51.52 92.96 57.92 116.64l1.12 4 3.040 3.040c13.76 13.6 14.4 28.48 14.4 69.6v8c0 32-13.6 38.72-14.24 39.040l-11.040 3.68 0.8 11.2v83.68c0 125.12-133.92 129.44-139.52 129.6h-39.040c-5.28 0-137.6-4.48-137.6-129.6v-95.2l-11.040-3.68s-13.28-6.4-13.28-38.72v-8c0-41.12 0-56 14.24-69.6l2.88-3.040 1.12-4.16c6.56-23.52 29.44-90.4 57.6-116.48l5.12-4.8v-71.68c0-3.36 1.6-45.28-62.56-78.88-56.64-29.6-132-69.92-132-70.080l-15.040 28.32s75.52 40.48 132.16 70.080c45.28 23.84 45.44 49.12 45.44 49.44v59.2c-33.44 35.84-55.2 105.12-60.32 122.56-20.8 22.88-20.64 48-20.64 89.12v8c0 36.96 13.92 54.72 24.32 62.88v74.72c0 125.44 110.72 160 169.44 161.6h39.36c59.36-1.12 171.2-36.16 171.2-161.6v-74.56c10.4-8.16 24.48-26.080 24.48-63.040v-8c0-40.96 0-66.24-20.8-89.12-5.12-17.6-27.2-86.88-60.96-122.56v-58.080c0-1.76 0-26.72 45.92-50.4 57.12-29.76 133.44-70.24 133.44-70.24zM512-48c-273.933 0-496 222.067-496 496s222.067 496 496 496c273.933 0 496-222.067 496-496v0c0-273.933-222.067-496-496-496v0zM512 912c-256.26 0-464-207.74-464-464s207.74-464 464-464c256.26 0 464 207.74 464 464v0c0 256.26-207.74 464-464 464v0z" />
<glyph unicode="&#xe92e;" glyph-name="full" d="M52.96 595.36h-32v348.64h348.64v-32h-316.64v-316.64zM25.709 916.698l22.627 22.627 332.623-332.623-22.627-22.627-332.623 332.623zM1003.040 595.36h-32v316.64h-316.64v32h348.64v-348.64zM642.992 606.705l332.623 332.623 22.627-22.627-332.623-332.623-22.627 22.627zM1003.040-48h-348.64v32h316.64v316.64h32v-348.64zM643.035 289.297l22.627 22.627 332.623-332.623-22.627-22.627-332.623 332.623zM369.6-48h-348.64v348.64h32v-316.64h316.64v-32zM25.753-20.701l332.623 332.623 22.627-22.627-332.623-332.623-22.627 22.627z" />
<glyph unicode="&#xe92f;" glyph-name="upload" d="M875.2-48h-726.4v710.4h32v-678.4h662.4v678.4h32v-710.4zM344.16 739.36l-22.72 22.72 188.16 188.16 188.32-188.16-22.72-22.72-165.6 165.6-165.44-165.6zM493.6 928h32v-638.4h-32v638.4z" />
<glyph unicode="&#xe930;" glyph-name="download" d="M875.2-48h-726.4v710.4h32v-678.4h662.4v678.4h32v-710.4zM509.6 267.36l-188.16 188.16 22.72 22.72 165.44-165.6 165.6 165.6 22.72-22.72-188.32-188.16zM493.6 928h32v-638.4h-32v638.4z" />
<glyph unicode="&#xe931;" glyph-name="extern" d="M726.4 84.8h-710.4v726.4h710.4v-32h-678.4v-662.4h678.4v-32zM826.080 262.080l-22.72 22.72 165.6 165.6-165.6 165.44 22.72 22.72 188.16-188.16-188.16-188.32zM353.6 466.4h638.4v-32h-638.4v32z" />
<glyph unicode="&#xe932;" glyph-name="blank" d="M885.12-44.96h-869.12v869.12h455.52v-32h-423.52v-805.12h805.12v414.080h32v-446.080zM1007.68 623.040h-32v285.6h-285.6v32h317.6v-317.6zM436.419 391.96l544.303 544.303 22.627-22.627-544.303-544.303-22.627 22.627z" />
<glyph unicode="&#xe933;" glyph-name="search" d="M390.72 194.72c-206.497 0.485-373.708 167.995-373.708 374.559 0 206.864 167.696 374.56 374.56 374.56s374.56-167.696 374.56-374.56c0-103.643-42.096-197.455-110.122-265.269l-0.010-0.010c-67.618-67.524-160.982-109.282-264.098-109.282-0.416 0-0.831 0.001-1.246 0.002h0.065zM390.72 912c-189.179-0.015-342.533-153.379-342.533-342.56 0-189.191 153.369-342.56 342.56-342.56s342.56 153.369 342.56 342.56c0 94.602-38.348 180.248-100.347 242.24v0c-61.917 61.98-147.488 100.32-242.014 100.32-0.079 0-0.159 0-0.238 0h0.012zM633.081 304.338l22.627 22.627 347.67-347.67-22.627-22.627-347.67 347.67z" />
<glyph unicode="&#xe934;" glyph-name="print" d="M1008 264.64h-272v32h240v406.080h-240v32h272v-470.080zM288 264.64h-272v470.080h272v-32h-240v-406.080h240v-32zM752 594.4h-480v265.92h480zM304 626.4h416v201.92h-416zM304 594.4h-130.4v140.32h130.4zM205.6 626.4h66.4v76.32h-66.4zM850.4 594.4h-130.4v140.32h130.4zM752 626.4h66.4v76.32h-66.4zM137.92 459.040c-0.047 0-0.104 0-0.16 0-31.988 0-57.92 25.932-57.92 57.92s25.932 57.92 57.92 57.92c31.988 0 57.92-25.932 57.92-57.92v0c0 0 0 0 0 0 0-31.932-25.841-57.829-57.751-57.92h-0.009zM137.92 542.72c-0.047 0-0.103 0-0.16 0-14.315 0-25.92-11.605-25.92-25.92s11.605-25.92 25.92-25.92c14.315 0 25.92 11.605 25.92 25.92 0 0.056 0 0.112-0.001 0.168v-0.009c0 14.227-11.533 25.76-25.76 25.76v0zM752 35.68h-480v361.92h480zM304 67.68h416v297.92h-416zM221.6 397.6h580.96v-32h-580.96v32zM393.92 296.64h231.36v-32h-231.36v32zM395.040 180.96h116.96v-32h-116.96v32z" />
<glyph unicode="&#xe935;" glyph-name="pointer" d="M512 444.48c-137.939 0-249.76 111.821-249.76 249.76s111.821 249.76 249.76 249.76c137.939 0 249.76-111.821 249.76-249.76v0c-0.091-137.902-111.858-249.669-249.752-249.76h-0.008zM512 912c-120.266 0-217.76-97.494-217.76-217.76s97.494-217.76 217.76-217.76c120.266 0 217.76 97.494 217.76 217.76v0c-0.182 120.192-97.568 217.578-217.743 217.76h-0.017zM429.44 702.080c-33.598 0.091-60.8 27.349-60.8 60.96 0 33.667 27.293 60.96 60.96 60.96s60.96-27.293 60.96-60.96v0c0 0 0 0 0 0 0-33.667-27.293-60.96-60.96-60.96-0.056 0-0.113 0-0.169 0h0.009zM429.44 792c-15.925-0.091-28.8-13.022-28.8-28.96 0-15.994 12.966-28.96 28.96-28.96s28.96 12.966 28.96 28.96v0c0 0 0 0 0 0 0 15.994-12.966 28.96-28.96 28.96-0.056 0-0.112 0-0.169 0h0.009zM496 460.48h32v-492.48h-32v492.48z" />
<glyph unicode="&#xe936;" glyph-name="controls" d="M340.64 652.64h-266.080v266.24h266.080zM106.56 684.64h202.080v202.24h-202.080zM32 801.76h65.76v-32h-65.76v32zM328.16 801.76h663.84v-32h-663.84v32zM949.44-22.88h-266.080v266.24h266.080zM715.36 9.12h202.080v202.24h-202.080zM926.24 126.24h65.76v-32h-65.76v32zM32 126.24h663.84v-32h-663.84v32zM32 449.92h361.92v-32h-361.92v32zM632.48 449.92h359.52v-32h-359.52v32zM645.12 300.96h-266.24v266.080h266.24zM410.88 332.96h202.24v202.080h-202.24z" />
<glyph unicode="&#xe937;" glyph-name="square-check" d="M885.44 13.28h-869.44v869.44h869.44v-58.4h-32v26.4h-805.44v-805.44h805.44v533.12h32v-565.12zM471.2 261.92l-236 236 22.56 22.72 213.44-213.44 509.44 509.6 22.72-22.72-532.16-532.16z" />
<glyph unicode="&#xe938;" glyph-name="pic" d="M912 128h-800v512h196.96l48 128h310.080l48-128h196.96zM144 160h736v448h-187.040l-48 128h-265.92l-48-128h-187.040zM288 608h-80v96h80zM240 640h16v32h-16zM512 240c-88.366 0-160 71.634-160 160s71.634 160 160 160c88.366 0 160-71.634 160-160v0c0-88.366-71.634-160-160-160v0zM512 528c-70.692 0-128-57.308-128-128s57.308-128 128-128c70.692 0 128 57.308 128 128v0c0 70.692-57.308 128-128 128v0zM512 176c-123.712 0-224 100.288-224 224s100.288 224 224 224c123.712 0 224-100.288 224-224v0c0-123.712-100.288-224-224-224v0zM512 592c-106.039 0-192-85.961-192-192s85.961-192 192-192c106.039 0 192 85.961 192 192v0c0 106.039-85.961 192-192 192v0zM800 480c-26.51 0-48 21.49-48 48s21.49 48 48 48c26.51 0 48-21.49 48-48v0c0-26.51-21.49-48-48-48v0zM800 544c-8.837 0-16-7.163-16-16s7.163-16 16-16c8.837 0 16 7.163 16 16v0c0 8.837-7.163 16-16 16v0z" />
<glyph unicode="&#xe939;" glyph-name="circle-place" d="M552 488c-53.019 0-96 42.981-96 96s42.981 96 96 96c53.019 0 96-42.981 96-96v0c0-53.019-42.981-96-96-96v0zM552 648c-35.346 0-64-28.654-64-64s28.654-64 64-64c35.346 0 64 28.654 64 64v0c0 35.346-28.654 64-64 64v0zM552 126.88l-12.32 14.88c-9.28 11.36-227.68 278.4-227.68 442.24 0 132.548 107.452 240 240 240s240-107.452 240-240v0c0-163.84-218.4-430.88-227.68-442.24zM552 792c-114.875 0-208-93.125-208-208v0c0-131.2 161.44-347.040 208-406.4 46.4 59.36 208 275.2 208 406.4 0 114.875-93.125 208-208 208v0zM552 72c-190.88 0-384 38.4-384 112 0 67.040 155.2 93.92 222.080 102.4l3.84-32c-141.28-17.6-193.92-52.48-193.92-70.4 0-32 137.12-80 352-80s352 48 352 80c0 17.92-52.64 52.8-193.92 70.56l3.84 32c66.88-8.48 222.080-35.36 222.080-102.4 0-73.76-193.12-112.16-384-112.16z" />
<glyph unicode="&#xe93a;" glyph-name="square-place" d="M512 496c-53.019 0-96 42.981-96 96s42.981 96 96 96c53.019 0 96-42.981 96-96v0c0-53.019-42.981-96-96-96v0zM512 656c-35.346 0-64-28.654-64-64s28.654-64 64-64c35.346 0 64 28.654 64 64v0c0 35.346-28.654 64-64 64v0zM512 134.88l-12.32 14.88c-9.28 11.36-227.68 278.4-227.68 442.24 0 132.548 107.452 240 240 240s240-107.452 240-240v0c0-163.84-218.4-430.88-227.68-442.24zM512 800c-114.875 0-208-93.125-208-208v0c0-131.2 161.44-347.040 208-406.4 46.4 59.36 208 275.2 208 406.4 0 114.875-93.125 208-208 208v0zM905.28 64h-786.56l143.040 304h74.24v-32h-53.76l-112.96-240h685.44l-112.8 240h-53.92v32h74.080l143.2-304z" />
<glyph unicode="&#xe93b;" glyph-name="check" d="M352 105.44l-331.36 331.2 22.72 22.72 308.64-308.8 628.64 628.8 22.72-22.72-651.36-651.2z" />
<glyph unicode="&#xe93c;" glyph-name="circle-check" d="M512-48c-273.933 0-496 222.067-496 496s222.067 496 496 496c273.933 0 496-222.067 496-496v0c0-273.933-222.067-496-496-496v0zM512 912c-256.26 0-464-207.74-464-464s207.74-464 464-464c256.26 0 464 207.74 464 464v0c0 256.26-207.74 464-464 464v0zM452 245.44l-191.36 191.2 22.72 22.72 168.64-168.8 348.64 348.8 22.72-22.72-371.36-371.2z" />
<glyph unicode="&#xe93d;" glyph-name="wfs" d="M512-48c-273.933 0-496 222.067-496 496s222.067 496 496 496c273.933 0 496-222.067 496-496v0c0-273.933-222.067-496-496-496v0zM512 912c-256.26 0-464-207.74-464-464s207.74-464 464-464c256.26 0 464 207.74 464 464v0c0 256.26-207.74 464-464 464v0zM512-48c-157.76 0-286.080 222.56-286.080 496s128.32 496 286.080 496 286.080-222.56 286.080-496-128.32-496-286.080-496zM512 912c-140 0-254.080-208-254.080-464s114.080-464 254.080-464 254.080 208 254.080 464-114.080 464-254.080 464zM74.56 661.44h875.040v-32h-875.040v32zM62.56 295.040h898.72v-32h-898.72v32zM496 928h32v-960h-32v960z" />
<glyph unicode="&#xe93e;" glyph-name="area-expand" d="M528 432h-466.4v32h434.4v434.4h32v-466.4zM948.96-18.4h-873.92v29.44h-29.44v873.92h29.44v29.44h873.92v-29.44h29.44v-873.92h-29.44zM107.040 13.6h809.92v29.44h29.44v809.92h-29.44v29.44h-809.92v-29.44h-29.44v-809.92h29.44zM1008 852.96h-45.6v32h13.6v27.040h-27.040v-13.6h-32v45.6h91.040v-91.040zM61.6 852.96h-45.6v91.040h91.040v-45.6h-32v13.6h-27.040v-27.040h13.6v-32zM107.040 852.96h-45.44v32h13.44v13.44h32v-45.44zM1008-48h-91.040v45.6h32v-13.6h27.040v27.040h-13.6v32h45.6v-91.040zM948.96-2.4h-32v45.44h45.44v-32h-13.44v-13.44zM107.040-48h-91.040v91.040h45.6v-32h-13.6v-27.040h27.040v13.6h32v-45.6zM107.040-2.4h-32v13.44h-13.44v32h45.44v-45.44zM641.44 567.36l-22.56 22.56 72.16 72.32-72.16 72.16 22.56 22.56 94.88-94.72-94.88-94.88zM512 678.080h199.36v-32h-199.36v32zM312.64 227.36l-94.88 94.88 22.56 22.56 72.32-72.16 72.16 72.16 22.72-22.56-94.88-94.88zM296.64 451.68h32v-199.36h-32v199.36zM50.234 740.061l169.819 169.819 22.627-22.627-169.819-169.819-22.627 22.627zM330.799 459.421l169.819 169.819 22.627-22.627-169.819-169.819-22.627 22.627zM212.613 459.29l288.047 288.047 22.627-22.627-288.047-288.047-22.627 22.627zM50.176 614.277l295.401 295.401 22.627-22.627-295.401-295.401-22.627 22.627zM50.194 459.338l450.512 450.512 22.627-22.627-450.512-450.512-22.627 22.627z" />
<glyph unicode="&#xe93f;" glyph-name="area-fill" d="M978.4-44.32h-112v32h80v135.36h32v-167.36zM393.92-12.32h236.32v-32h-236.32v32zM157.6-44.32h-112v167.36h32v-135.36h80v-32zM61.6 849.28h-45.6v91.040h91.040v-45.6h-32v13.6h-27.040v-27.040h13.6v-32zM1008 849.28h-45.6v32h13.6v27.040h-27.040v-13.6h-32v45.6h91.040v-91.040zM107.040 103.36h-91.040v91.040h45.6v-32h-13.6v-27.040h27.040v13.6h32v-45.6zM1008 103.36h-91.040v45.6h32v-13.6h27.040v27.040h-13.6v32h45.6v-91.040zM45.6 158.080v177.92l576 576h176.64zM77.6 322.080v-86.72l643.36 643.36h-86.88zM45.6 422.24v177.28l311.2 311.2h177.28zM77.6 586.24v-86.72l379.2 379.2h-86.72zM45.6 290.080v177.44l443.2 443.2h177.28zM77.6 454.24v-86.24l512 512h-87.52zM45.6 686.24v195.040h29.44v29.44h195.040zM77.6 849.28v-85.76l115.2 115.2h-85.76v-29.44zM107.040 849.28h-45.44v32h13.44v13.44h32v-45.44zM45.6 554.24v177.28l179.2 179.2h177.28zM77.6 718.24v-86.72l247.2 247.2h-86.72zM548.48 132.96h-177.28l608 607.2v-177.28zM448.48 164.96h86.88l411.040 411.040v86.88zM812.64 132.96h-177.28l343.040 343.040v-177.28zM712.64 164.96h87.36l147.040 147.040v86.88zM948.96 132.96h-180.96l210.4 211.040v-181.6h-29.44zM844.64 164.96h72.32v29.44h29.44v72.32zM948.96 148.96h-32v45.44h45.44v-32h-13.44v-13.44zM416 132.96h-308.8l777.76 777.76h64v-29.44h29.44v-186.4zM316 164.96h87.2l544 543.2v86.72zM183.84 164.96h88.16l675.2 675.2v9.12h-30.24v29.44h-18.72zM962.4 849.28h-45.44v45.44h32v-13.44h13.44v-32zM680.64 132.96h-177.28l475.040 475.040v-177.12zM580.48 164.96h86.88l279.040 279.040v86.88zM152.32 132.96h-77.28v29.44h-29.44v40.96l707.36 707.36h177.28zM107.040 164.96h32l713.92 713.76h-86.72l-684.32-684.32h25.12zM107.040 148.96h-32v13.44h-13.44v32h45.44v-45.44z" />
<glyph unicode="&#xe940;" glyph-name="area-left-fill" d="M77.6 27.040h-32v841.92h32v-841.92zM948.96-18.4h-164.96v900.8h-692.96v32h857.92v-29.44h29.44v-873.92h-29.44zM816 13.6h100.96v29.44h29.44v809.92h-29.44v29.44h-100.96zM107.040-48h-91.040v91.040h45.6v-32h-13.6v-27.040h27.040v13.6h32v-45.6zM61.6 852.96h-45.6v91.040h91.040v-45.6h-32v13.6h-27.040v-27.040h13.6v-32zM1008-48h-91.040v45.6h32v-13.6h27.040v27.040h-13.6v32h45.6v-91.040zM948.96-2.4h-32v45.44h45.44v-32h-13.44v-13.44zM1008 852.96h-45.6v32h13.6v27.040h-27.040v-13.6h-32v45.6h91.040v-91.040zM962.4 852.96h-45.44v45.44h32v-13.44h13.44v-32zM108.96 13.6h130.72v-32h-130.72v32zM246.24-18.4h-176l745.76 752.8v-177.44zM147.2 13.6h85.76l551.040 556.48v85.92zM370.4 13.6h130.72v-32h-130.72v32zM507.84-18.4h-176l484.16 488.8v-177.6zM408.8 13.6h85.6l289.6 292.32v86.72zM239.68 13.6h130.72v-32h-130.72v32zM377.12-18.4h-176l614.88 620.8v-177.44zM278.080 13.6h85.6l420.32 424.48v86.56zM631.84 13.6h168.16v-32h-168.16v32zM816-18.4h-222.56l222.56 224.64zM670.24 13.6h113.76v114.4zM501.12 13.6h130.72v-32h-130.72v32zM638.56-18.4h-176l353.44 356.8v-178.4zM539.52 13.6h85.6l158.88 160v86.88zM45.6 306.88v177.6l425.6 429.92h176zM77.6 471.36v-87.36l492.8 497.6h-85.76zM45.6 571.040v177.6l164.16 165.76h176zM77.6 736v-86.56l231.2 232.96h-84.8zM45.6 703.040v181.92h29.44v29.44h179.84zM77.6 852.96v-72l100.48 101.44h-71.040v-29.44zM107.040 852.96h-45.44v32h13.44v13.44h32v-45.44zM45.6 42.88v309.12l556.48 562.4h213.92v-93.44zM77.6 207.2v-86.56l706.4 713.6v48h-37.92zM77.6 339.36v-86.72l624 629.76h-86.24zM45.6 439.040v177.44l294.88 297.92h176zM77.6 603.36v-86.56l361.92 365.6h-85.6zM91.040 13.6h17.76v-32h-17.76v32zM115.52-18.4h-40.48v29.44h-29.44v77.28l770.4 778.24v-177.6zM77.6 43.040h29.44v-24.64l676.96 683.68v86.56l-706.4-713.44zM107.040-2.4h-32v13.44h-13.44v32h45.44v-45.44z" />
<glyph unicode="&#xe941;" glyph-name="themes" d="M1008-48h-992v992h992zM48-16h928v928h-928zM32 464h960v-32h-960v32zM496 928h32v-960h-32v960zM150.56 833.12c0-13.078-10.602-23.68-23.68-23.68s-23.68 10.602-23.68 23.68c0 13.078 10.602 23.68 23.68 23.68s23.68-10.602 23.68-23.68zM301.6 833.12c0-13.078-10.602-23.68-23.68-23.68s-23.68 10.602-23.68 23.68c0 13.078 10.602 23.68 23.68 23.68s23.68-10.602 23.68-23.68zM452.64 833.12c0-13.078-10.602-23.68-23.68-23.68s-23.68 10.602-23.68 23.68c0 13.078 10.602 23.68 23.68 23.68s23.68-10.602 23.68-23.68zM227.52 732.48c0-13.078-10.602-23.68-23.68-23.68s-23.68 10.602-23.68 23.68c0 13.078 10.602 23.68 23.68 23.68s23.68-10.602 23.68-23.68zM381.6 732.48c0-13.078-10.602-23.68-23.68-23.68s-23.68 10.602-23.68 23.68c0 13.078 10.602 23.68 23.68 23.68s23.68-10.602 23.68-23.68zM150.56 631.68c0-13.078-10.602-23.68-23.68-23.68s-23.68 10.602-23.68 23.68c0 13.078 10.602 23.68 23.68 23.68s23.68-10.602 23.68-23.68zM301.6 631.68c0-13.078-10.602-23.68-23.68-23.68s-23.68 10.602-23.68 23.68c0 13.078 10.602 23.68 23.68 23.68s23.68-10.602 23.68-23.68zM452.64 631.68c0-13.078-10.602-23.68-23.68-23.68s-23.68 10.602-23.68 23.68c0 13.078 10.602 23.68 23.68 23.68s23.68-10.602 23.68-23.68zM227.52 531.040c0-13.078-10.602-23.68-23.68-23.68s-23.68 10.602-23.68 23.68c0 13.078 10.602 23.68 23.68 23.68s23.68-10.602 23.68-23.68zM381.6 531.040c0-13.078-10.602-23.68-23.68-23.68s-23.68 10.602-23.68 23.68c0 13.078 10.602 23.68 23.68 23.68s23.68-10.602 23.68-23.68zM624.64 359.040c0-13.078-10.602-23.68-23.68-23.68s-23.68 10.602-23.68 23.68c0 13.078 10.602 23.68 23.68 23.68s23.68-10.602 23.68-23.68zM775.68 359.040c0-13.078-10.602-23.68-23.68-23.68s-23.68 10.602-23.68 23.68c0 13.078 10.602 23.68 23.68 23.68s23.68-10.602 23.68-23.68zM926.72 359.040c0-13.078-10.602-23.68-23.68-23.68s-23.68 10.602-23.68 23.68c0 13.078 10.602 23.68 23.68 23.68s23.68-10.602 23.68-23.68zM701.6 258.4c0-13.078-10.602-23.68-23.68-23.68s-23.68 10.602-23.68 23.68c0 13.078 10.602 23.68 23.68 23.68s23.68-10.602 23.68-23.68zM855.68 258.4c0-13.078-10.602-23.68-23.68-23.68s-23.68 10.602-23.68 23.68c0 13.078 10.602 23.68 23.68 23.68s23.68-10.602 23.68-23.68zM624.64 157.6c0-13.078-10.602-23.68-23.68-23.68s-23.68 10.602-23.68 23.68c0 13.078 10.602 23.68 23.68 23.68s23.68-10.602 23.68-23.68zM775.68 157.6c0-13.078-10.602-23.68-23.68-23.68s-23.68 10.602-23.68 23.68c0 13.078 10.602 23.68 23.68 23.68s23.68-10.602 23.68-23.68zM926.72 157.6c0-13.078-10.602-23.68-23.68-23.68s-23.68 10.602-23.68 23.68c0 13.078 10.602 23.68 23.68 23.68s23.68-10.602 23.68-23.68zM701.6 56.96c0-13.078-10.602-23.68-23.68-23.68s-23.68 10.602-23.68 23.68c0 13.078 10.602 23.68 23.68 23.68s23.68-10.602 23.68-23.68zM855.68 56.96c0-13.078-10.602-23.68-23.68-23.68s-23.68 10.602-23.68 23.68c0 13.078 10.602 23.68 23.68 23.68s23.68-10.602 23.68-23.68zM500.834 758.295l181.019 181.019 22.627-22.627-181.019-181.019-22.627 22.627zM799.627 459.368l181.019 181.019 22.627-22.627-181.019-181.019-22.627 22.627zM673.764 459.391l306.941 306.941 22.627-22.627-306.941-306.941-22.627 22.627zM500.712 624.551l314.747 314.747 22.627-22.627-314.747-314.747-22.627 22.627zM500.8 459.401l480.041 480.041 22.627-22.627-480.041-480.041-22.627 22.627z" />
<glyph unicode="&#xe942;" glyph-name="kml" d="M512 832c212.076-0.002 383.996-171.924 383.996-384s-171.923-384-384-384-384 171.923-384 384c0 0.619 0.001 1.237 0.004 1.855v-0.095c1 211.319 172.537 382.24 383.996 382.24 0.001 0 0.003 0 0.004 0v0zM171.36 552.32l3.68-2.72c4.344 2.2 8.065 4.539 11.547 7.176l-0.187-0.136c7.68 6.24 14.72 12.96 22.24 19.2 45.28 37.6 94.4 48 148.8 21.28 21.439-10.613 39.038-20.67 56.020-31.602l-2.26 1.362c75.52-50.24 149.6-102.88 226.4-150.88 56.809-36.789 123.256-64.562 194.461-79.344l3.779-0.656c10.88-2.080 16 0 18.080 10.56 2.72 13.44 4.48 27.040 8.16 40.16 2.24 8.8-0.96 12-8.16 13.6-39.445 9.474-73.953 26.552-103.457 49.717l0.577-0.437c-55.2 43.2-108.8 88.16-162.24 133.44-37.12 32-72.32 64.96-109.28 96-49.92 42.72-108.64 50.56-171.2 38.080-16.712-1.636-31.817-7.384-44.64-16.208l0.32 0.208c-36.861-32.831-65.701-73.858-83.752-120.273l-0.728-2.127c-3.2-8.8-5.44-18.080-8.16-27.040zM805.6 247.040l-4.32 4.64-13.6-3.52c-42.826-14.118-92.12-22.26-143.316-22.26-1.535 0-3.068 0.007-4.599 0.022l0.235-0.002c-47.8 2.745-92.151 8.447-135.469 17.021l6.189-1.021c-73.6 14.080-141.76 44.64-210.72 72.96-20.028 9.128-43.264 15.582-67.657 18.156l-0.983 0.084c-0.93 0.085-2.012 0.133-3.105 0.133-20.059 0-36.32-16.261-36.32-36.32 0-7.435 2.234-14.349 6.068-20.106l-0.083 0.133c34.286-62.357 84.8-112.101 145.915-144.509l1.925-0.931c5.246-2.369 11.677-4.713 18.294-6.617l1.066-0.263c-1.6 8.32-2.4 12.96-3.52 17.6-8.48 33.6 5.28 48 39.52 40.48 4.8-0.96 9.6-1.92 14.4-3.2 51.042-15.045 109.684-23.702 170.348-23.702 28.621 0 56.792 1.927 84.39 5.658l-3.218-0.356c45.12 6.72 89.12 16 117.28 56.96 6.72 9.92 13.92 19.36 20.96 28.8zM410.080 788c0-1.92 0-4 0.8-6.080 3.52 0 7.040-1.6 10.72-1.76l55.68-2.72c68.675-2.18 130.006-31.902 173.635-78.425l0.125-0.135c35.84-38.72 65.92-82.72 99.68-123.52 15.191-18.383 31.322-34.818 48.745-49.791l0.535-0.449c5.398-4.811 12.556-7.751 20.4-7.751s15.002 2.94 20.431 7.778l-0.031-0.027c12.32 10.080 14.4 19.68 8 38.4-22.353 66.482-62.743 121.957-115.354 162.287l-0.806 0.593c-59.876 48.090-136.797 77.182-220.514 77.182-17.712 0-35.12-1.302-52.134-3.816l1.927 0.234c-17.44-2.24-34.56-7.52-51.84-11.36z" />
<glyph unicode="&#xe943;" glyph-name="kml-file" d="M784 642.080c0 0.006 0 0.014 0 0.022 0 3.586-1.268 6.875-3.381 9.444l0.021-0.026-144 164.48c-0.803 0.958-1.756 1.759-2.829 2.373l-0.051 0.027h-0.96c-0.823 0.539-1.792 0.931-2.834 1.113l-0.046 0.007c-0.503 0.042-1.089 0.066-1.68 0.066s-1.177-0.024-1.756-0.071l0.076 0.005h-354.56c-16.171 0-29.28-13.109-29.28-29.28v0-685.76c0-16.171 13.109-29.28 29.28-29.28v0h482.72c16.171 0 29.28 13.109 29.28 29.28v0 535.52c0.038 0.24 0.059 0.518 0.059 0.8s-0.022 0.56-0.063 0.83l0.004-0.030zM384 126.88l-36.32 65.12-13.12-16v-49.44h-33.92v151.68h33.92v-67.040h1.44c3.36 5.92 6.88 11.2 10.24 16l34.4 50.4h41.92l-50.080-64 52.8-86.88zM568.16 126.88l-2.24 57.92c0 18.080-1.28 40.16-1.28 62.24v0c-4.8-19.36-11.040-40.96-16.96-58.72l-18.4-59.040h-26.72l-16 58.56c-4.96 17.76-10.080 39.36-13.76 59.2v0c-0.96-20.48-1.6-43.84-2.72-62.72l-2.72-57.44h-32l9.6 151.36h45.6l14.88-50.56c4.64-17.6 9.44-36.32 12.8-54.080v0c4.32 17.44 9.44 37.44 14.4 54.24l16 50.4h44.64l8.32-151.36zM722.4 126.88h-93.92v151.36h34.4v-122.72h60.16zM272 324.32v467.2h339.040v-149.6c0-8.041 6.519-14.56 14.56-14.56v0h129.12v-303.040zM509.12 733.44c0.047 0 0.102 0 0.157 0 99.235 0 179.68-80.445 179.68-179.68s-80.445-179.68-179.68-179.68c-99.235 0-179.68 80.445-179.68 179.68 0 0.338 0.001 0.675 0.003 1.012v-0.052c0.545 98.766 80.691 178.631 179.511 178.72h0.009zM349.92 602.56l1.76-1.28c2.072 1.174 3.796 2.285 5.456 3.48l-0.176-0.12 10.4 8.96c10.731 10.677 25.527 17.278 41.865 17.278 10.146 0 19.698-2.546 28.052-7.033l-0.317 0.156c9.988-4.905 18.213-9.589 26.14-14.695l-1.020 0.615c35.36-23.52 69.92-48 105.76-70.72 26.6-17.1 57.724-29.948 91.066-36.668l1.734-0.292c4.96-0.96 7.36 0 8.32 4.96s2.080 12.64 3.84 18.72 0 5.6-3.84 6.4c-18.411 4.41-34.515 12.397-48.263 23.24l0.263-0.2c-25.92 20.16-50.88 41.12-75.84 62.4-17.12 14.080-33.12 29.76-51.040 44.48-15.482 12.922-35.591 20.767-57.533 20.767-7.984 0-15.724-1.039-23.095-2.988l0.628 0.141c-7.807-0.8-14.843-3.558-20.774-7.77l0.134 0.090c-17.213-15.389-30.697-34.58-39.176-56.28l-0.344-1c-1.44-4-2.56-8.32-3.84-12.64zM646.4 460l-2.080 2.080-6.24-1.6c-19.796-6.606-42.587-10.417-66.269-10.417-0.946 0-1.891 0.006-2.835 0.018l0.144-0.001c-22.185 1.192-42.881 3.875-63.057 7.986l2.737-0.466c-37.694 8.984-70.546 20.675-101.679 35.408l3.119-1.328c-9.34 4.272-20.176 7.275-31.557 8.443l-0.443 0.037c-0.562 0.066-1.213 0.104-1.872 0.104-9.367 0-16.96-7.593-16.96-16.96 0-3.496 1.058-6.745 2.871-9.445l-0.039 0.061c16.175-29.242 40.020-52.521 68.845-67.565l0.915-0.435c2.388-1.068 5.363-2.158 8.417-3.062l0.543-0.138c-0.8 4-1.12 6.080-1.6 8.32-4 16 2.4 22.080 18.4 18.88l6.72-1.44c23.829-7.081 51.208-11.156 79.539-11.156 13.421 0 26.628 0.914 39.563 2.684l-1.503-0.168c21.12 3.040 41.76 7.2 54.88 26.56 3.040 4.64 6.4 9.12 9.76 13.6zM461.6 712.8v-2.88h4.96l26.080-1.28c32.108-1 60.793-14.863 81.224-36.58l0.056-0.060c16-18.24 30.72-38.72 46.56-57.76 7.008-8.655 14.503-16.352 22.641-23.32l0.239-0.2c2.511-2.265 5.854-3.65 9.52-3.65s7.009 1.385 9.533 3.661l-0.013-0.011c5.76 4.64 6.72 9.28 3.84 17.92-10.502 31.082-29.411 57.016-54.022 75.882l-0.378 0.278c-27.948 22.476-63.865 36.074-102.958 36.074-8.27 0-16.398-0.609-24.342-1.783l0.9 0.109c-8.16-1.12-16-3.52-24.16-5.28z" />
<glyph unicode="&#xe944;" glyph-name="vector" d="M96 677.28c-44.183 0-80 35.817-80 80s35.817 80 80 80c44.183 0 80-35.817 80-80v0c0-44.183-35.817-80-80-80v0zM96 805.28c-26.51 0-48-21.49-48-48s21.49-48 48-48c26.51 0 48 21.49 48 48v0c0 26.51-21.49 48-48 48v0zM650.72 677.28c-44.183 0-80 35.817-80 80s35.817 80 80 80c44.183 0 80-35.817 80-80v0c0-44.183-35.817-80-80-80v0zM650.72 805.28c-26.51 0-48-21.49-48-48s21.49-48 48-48c26.51 0 48 21.49 48 48v0c0 26.51-21.49 48-48 48v0zM394.72 58.72c-44.183 0-80 35.817-80 80s35.817 80 80 80c44.183 0 80-35.817 80-80v0c0-44.183-35.817-80-80-80v0zM394.72 186.72c-26.51 0-48-21.49-48-48s21.49-48 48-48c26.51 0 48 21.49 48 48v0c0 26.51-21.49 48-48 48v0zM928 677.28c-44.183 0-80 35.817-80 80s35.817 80 80 80c44.183 0 80-35.817 80-80v0c0-44.183-35.817-80-80-80v0zM928 805.28c-26.51 0-48-21.49-48-48s21.49-48 48-48c26.51 0 48 21.49 48 48v0c0 26.51-21.49 48-48 48v0zM106.341 691.568l28.935 13.665 239.007-506.080-28.935-13.665-239.007 506.080zM414.693 198.32l205.391 503.045 29.626-12.096-205.391-503.045-29.626 12.096zM714.72 773.28h149.28v-32h-149.28v32z" />
<glyph unicode="&#xe945;" glyph-name="mssql" d="M32 21.44c-0.009 0-0.021 0-0.032 0-5.694 0-10.694 2.974-13.529 7.454l-0.039 0.066c-1.501 2.392-2.391 5.299-2.391 8.414 0 5.070 2.359 9.59 6.038 12.521l0.032 0.025c12.397 9.459 26.381 18.379 41.092 26.101l1.628 0.779c70.846 50.294 122.562 123.495 144.56 208.646l0.56 2.554c36.16 153.76-27.84 337.6-190.56 546.72-2.146 2.698-3.442 6.155-3.442 9.915 0 2.195 0.442 4.286 1.242 6.191l-0.039-0.105c2.061 5.152 6.578 8.926 12.063 9.906l0.097 0.014c7.52 1.44 757.12 126.88 977.6-424.32 0.801-1.841 1.267-3.986 1.267-6.24s-0.466-4.399-1.307-6.344l0.040 0.104c-1.798-3.938-5.029-6.961-9.009-8.444l-0.111-0.036c-8.16-3.040-709.76-255.36-912.32-363.52-13.495-10.18-28.742-19.748-44.789-27.975l-1.771-0.825c-1.966-1.009-4.29-1.601-6.752-1.601-0.045 0-0.090 0-0.135 0.001h0.007zM61.28 832c156.8-208 217.12-394.080 179.68-552.32-14.606-60.089-41.659-112.46-78.413-156.446l0.493 0.606c246.56 112 713.28 280.96 807.68 315.040-194.4 453.6-777.6 409.12-909.44 393.12zM388.32 190.24l-29.76 11.52c139.52 362.56-116 642.72-118.56 646.24l23.52 21.76c2.56-3.52 271.84-297.92 124.8-679.52zM640 288l-29.92 11.040c1.12 3.36 92.16 260.96-61.12 503.36l27.040 17.12c161.92-255.84 68.48-519.52 64-531.52zM834.72 360.16l-28.64 14.56c64 125.76 0 290.4 0 292l29.6 11.84c2.56-6.56 69.92-179.84-0.96-318.4z" />
<glyph unicode="&#xe946;" glyph-name="oracle-spatial" d="M704 85.28h-384c-167.895 0-304 136.105-304 304v0 116.8c0 167.895 136.105 304 304 304v0h384c167.895 0 304-136.105 304-304v0-116.8c0-167.895-136.105-304-304-304v0zM320 778.72c-150.221 0-272-121.779-272-272v0-116.8c0-150.221 121.779-272 272-272v0h384c150.221 0 272 121.779 272 272v0 116.8c0 150.221-121.779 272-272 272v0z" />
<glyph unicode="&#xe948;" glyph-name="oracle-raster" d="M325.28 794.72h-1.12c-161.319-0.091-292.069-130.841-292.16-292.152v-54.568h293.28zM992 448v54.56c-0.091 161.319-130.841 292.069-292.152 292.16h-1.128v-346.72zM325.28 448h373.28v-346.72h-373.28v346.72zM700.8 85.28h-377.6c-169.589 0.182-307.018 137.611-307.2 307.182v111.058c0.182 169.589 137.611 307.018 307.182 307.2h377.618c169.589-0.182 307.018-137.611 307.2-307.182v-111.058c-0.182-169.589-137.611-307.018-307.182-307.2h-0.018zM323.2 778.72c-151.916-0.182-275.018-123.284-275.2-275.183v-111.057c0.182-151.916 123.284-275.018 275.183-275.2h377.617c151.916 0.182 275.018 123.284 275.2 275.183v111.057c-0.182 151.916-123.284 275.018-275.183 275.2h-0.017z" />
<glyph unicode="&#xe949;" glyph-name="raster" d="M1008-48h-992v992h992zM48-16h928v928h-928zM352 608h320v-320h-320v320zM672 288h320v-320h-320v320zM32 288h320v-320h-320v320zM672 927.84h320v-320h-320v320zM32 927.84h320v-320h-320v320z" />
<glyph unicode="&#xe94a;" glyph-name="postgis" d="M241.12 212.32h-1.12c-22.88 0-82.4 18.72-137.76 177.12-64 184.64-112 370.24-24.48 477.6 96 117.44 296.64 39.52 336 22.72l-12.64-29.44c-22.080 9.28-215.52 88.32-298.72-13.6-78.080-94.72-28.64-279.36 29.92-446.72 39.84-114.080 83.2-155.2 108.32-155.68 7.28 0.022 13.414 4.902 15.332 11.567l0.028 0.113c19.2 48 104 116.64 113.6 124.32l20-24.96c-24.32-19.36-90.24-77.28-103.84-111.2-6.769-18.546-24.149-31.594-44.61-31.84h-0.030zM617.92-48c-7.040 0-14.24 0-21.76 0.96-110.56 9.12-101.28 200-97.28 281.6 0 10.4 0.96 18.72 0.96 24.32 0 49.6-11.52 65.6-48 65.6-61.12 0-100.48 39.36-129.12 68-32 32-32 80-22.72 158.24 2.548 19.1 4.003 41.183 4.003 63.606 0 0.589-0.001 1.177-0.003 1.766v-0.091c-0.124 4.209-0.194 9.161-0.194 14.13 0 56.828 9.204 111.507 26.202 162.627l-1.048-3.637c39.040 126.080 178.88 146.24 184.8 147.040 5.349 0.29 11.609 0.455 17.908 0.455 31.973 0 62.952-4.253 92.403-12.224l-2.471 0.57v1.92c130.4 28 171.2 27.040 309.6-46.88 26.873-15.262 46.266-41.053 52.677-71.62l0.123-0.7c34.88-138.88-97.76-402.88-110.56-421.92-9.676-15.591-20.904-29.008-33.762-40.659l-0.158-0.141-1.28-2.88-12.32-24.64-6.88 10.56-12.64-9.6c-18.72-14.24-27.68-147.68-32-204.64s-5.12-71.84-9.12-80c-12.32-25.28-51.52-81.76-147.36-81.76zM531.68 904.8c-2.152 0.131-4.667 0.206-7.2 0.206s-5.048-0.075-7.544-0.222l0.344 0.016s-125.6-18.24-158.24-124.64c-14.783-44.198-23.312-95.090-23.312-147.973 0-5.692 0.099-11.362 0.295-17.006l-0.023 0.819c0.064-3.065 0.101-6.677 0.101-10.298 0-20.725-1.199-41.17-3.532-61.269l0.231 2.447c-8.32-66.56-8.64-109.44 13.6-131.68 26.24-26.24 58.72-58.72 106.56-58.72 80 0 80-70.88 80-97.6 0-5.92 0-14.72-0.96-25.92-4-66.080-12.96-241.44 66.72-248.96 88.8-7.2 124.96 36.8 138.4 64 1.76 5.44 3.84 38.4 5.92 67.52 9.12 136.16 18.4 208 44.16 228.16l14.080 10.72c-26.88 42.72-103.2 169.92-111.040 256-0.595 3.715-0.934 7.999-0.934 12.361 0 22.813 9.288 43.456 24.29 58.354l0.005 0.005c26.080 24.96 67.52 29.6 94.24 29.6-7.754 18.416-15.735 33.872-24.744 48.634l0.904-1.594-0.8 1.6c-64.48 134.24-206.080 145.44-251.52 145.44zM808.48 679.2c-23.040 0-55.2-4-72.8-20.96-8.891-9.221-14.368-21.786-14.368-35.63 0-3.127 0.28-6.19 0.815-9.163l-0.047 0.312c6.4-70.56 66.72-177.12 97.44-227.36 3.078 11.839 4.845 25.43 4.845 39.433 0 16.165-2.355 31.779-6.74 46.519l0.294-1.153c-19.36 57.92-10.080 170.56 0 200.48 0.239 1.082 0.376 2.325 0.376 3.6s-0.137 2.518-0.397 3.715l0.021-0.115zM810.88 773.92c12-19.36 48-80.96 37.28-112-8.48-25.44-16-130.080 0-180.16 5.216-15.685 8.225-33.741 8.225-52.501 0-3.088-0.082-6.157-0.243-9.205l0.018 0.426c32.96 64 123.52 273.6 96.8 379.84-4.299 22.306-17.862 40.803-36.439 51.645l-0.361 0.195c-112 59.52-151.84 68.8-238.88 53.6 59.142-27.131 105.732-73.153 132.9-130.207l0.7-1.633zM846.72 249.92c-53.28 0-77.12 18.080-80 20.48l20.16 24.96s26.24-19.52 89.44-11.52c24.681 2.865 46.614 12.85 64.167 27.819l-0.167-0.139c-40.64-2.4-100.96 0-128 26.56l22.56 22.72c22.24-22.24 97.92-20.16 140.32-13.6l30.88 4.8-14.080-27.84c-23.428-39.726-64.052-67.16-111.366-72.106l-0.634-0.054c-9.934-1.266-21.486-2.020-33.202-2.080h-0.078zM409.44 214.56c-1.093-0.051-2.375-0.079-3.664-0.079-33.453 0-62.374 19.408-76.116 47.578l-0.221 0.501-8 20 21.44 1.92c77.28 7.040 91.68 55.52 93.92 65.92-4.8 35.36 11.2 77.76 27.2 115.36 7.988 16.146 14.216 34.881 17.73 54.556l0.19 1.284c0 3.68 0 8 0 12.8 0.8 39.52 2.4 112.96-42.88 125.92-55.040 16-109.28-21.6-109.76-21.92l-18.56 26.080c2.72 1.92 67.2 46.56 137.12 26.56s67.040-112 66.080-157.28c0-4.64 0-8.64 0-12.16-3.155-25.226-10.317-48.136-20.871-69.043l0.551 1.203c-13.6-34.72-29.6-73.92-25.44-101.76v-4.64c-3.2-26.24-27.52-74.56-94.88-90.88 10.124-6.626 22.525-10.567 35.846-10.567 4.872 0 9.62 0.527 14.191 1.528l-0.437-0.080c31.907 3.168 59.579 19.074 78.222 42.488l0.178 0.232 26.72-17.12c-23.771-31.354-59.434-52.621-100.153-57.063l-0.647-0.057c-5.257-0.815-11.321-1.28-17.494-1.28-0.093 0-0.187 0-0.28 0h0.014zM452.48 614.4c-2.157-0.25-4.656-0.393-7.188-0.393-15.473 0-29.702 5.331-40.948 14.257l0.136-0.104 11.52 11.84 10.56 12c6.291-3.24 13.729-5.14 21.61-5.14 1.461 0 2.907 0.065 4.334 0.193l-0.184-0.013zM742.4 624v32c1.092-0.044 2.374-0.069 3.661-0.069 11.055 0 21.679 1.841 31.584 5.233l-0.686-0.204 22.080-23.2c-12-12.48-40.64-13.76-56.64-13.76z" />
<glyph unicode="&#xe94b;" glyph-name="text-delimited" d="M338.24-53.12l-50.24 104.48 12.96 7.36c119.68 67.36 203.36 140.96 248.48 218.72s67.84 143.040 67.84 193.6c0 16-5.92 19.040-7.84 19.84-8.551 3.962-18.55 6.31-29.088 6.4h-0.032l-129.44-13.44c-60.028 0.107-115.090 21.279-158.209 56.516l0.449-0.356c-48 38.24-73.28 93.92-73.28 165.28 1.825 60.669 24.057 115.815 60.027 159.15l-0.347-0.43c40.48 53.28 105.76 80 195.040 80 89.91-0.846 170.764-38.921 228.018-99.528l0.142-0.152c66.88-66.24 100.8-158.88 100.8-275.36 0-132.48-48-257.44-144-371.2v0c-94.4-112-197.76-194.88-307.040-244.32zM330.24 38.24l23.36-48.96c99.52 48 194.24 124.96 281.44 228.96v0c90.56 108 136.48 225.92 136.48 350.72 0 107.68-30.72 192-91.2 252.64-51.72 54.939-124.619 89.439-205.584 90.398l-0.176 0.002c-78.88 0-135.84-22.4-169.6-66.72-31.442-37.821-51.017-86.492-52.473-139.687l-0.007-0.313c0-61.92 20-107.84 61.12-140 37.046-30.493 84.877-49.098 137.045-49.44h0.075l129.44 13.44c0.103 0 0.225 0.001 0.347 0.001 15.463 0 30.142-3.359 43.346-9.388l-0.653 0.267c12.16-5.28 26.72-18.24 26.72-49.12 0-56.32-24.32-126.88-72.16-209.6-46.4-80-129.76-154.88-247.52-223.2z" />
<glyph unicode="&#xe94c;" glyph-name="spatialite" d="M43.36-27.84l-22.72 22.56c1.92 1.92 188.32 188 342.080 310.88 42.080 33.76 86.88 67.68 130.080 100.64 116 87.84 225.44 171.040 269.12 236.48l26.56-17.76c-46.56-69.92-158.080-154.56-276.48-244.32-43.040-32-87.68-66.4-129.44-100-152.32-121.92-337.44-306.56-339.2-308.48zM276.16 137.28c-1.546-0.042-3.366-0.066-5.192-0.066-20.501 0-40.3 3.005-58.981 8.599l1.453-0.374-8.32 2.88-2.080 8.64c-1.28 5.6-32 140.64 63.040 299.2 16.070 25.873 33.876 48.309 53.94 68.5l-0.020-0.020c12.64 13.12 29.6 2.24 55.2-14.24-16 50.56-6.72 58.4-0.96 62.88 53.099 40.756 113.070 78.043 176.588 109.211l6.292 2.789 6.72 3.52 7.52-3.040c5.208-2.581 9.155-7.049 10.995-12.488l0.045-0.152c5.28 27.52 10.72 30.080 16 32 24.32 11.68 48 22.56 69.76 32 25.44 11.84 49.44 23.040 69.76 33.12 93.779 50.186 173.739 101.577 249.287 158.51l-4.807-3.47 30.88 23.2-5.28-38.24c-29.76-208-170.88-425.92-408-629.28-141.28-120.96-256.8-143.68-323.84-143.68zM232.64 173.6c34.56-6.88 168.8-20.48 346.4 131.68 216.48 185.6 350.72 382.72 390.4 571.2-62.205-44.911-133.328-89.072-207.461-128.304l-9.979-4.816c-20.64-10.24-44.8-21.6-70.56-33.6-20.48-9.44-42.24-19.52-64-30.4-4.876-22.222-8.683-48.888-10.615-76.071l-0.105-1.849v-8.96l-14.88-7.36-7.52 3.040c-9.28 4.16-12 12.64-20.96 44.64-1.44 4.96-3.2 11.36-4.96 16.96-60.68-30.701-112.667-63.398-161.305-100.279l2.585 1.879c5.075-25.141 12.258-47.307 21.616-68.289l-0.816 2.049 4.32-10.4-8.32-7.68c-13.12-11.68-30.24-0.8-56.16 16-6.080 4-16 9.92-21.6 13.28-15.79-16.708-30.048-35.189-42.351-55.011l-0.849-1.469c-40.878-62.974-65.184-139.99-65.184-222.683 0-15.343 0.837-30.491 2.467-45.4l-0.164 1.842z" />
<glyph unicode="&#xe94d;" glyph-name="wcs" d="M184.16 576c-36.937 0-66.88 29.943-66.88 66.88s29.943 66.88 66.88 66.88c36.937 0 66.88-29.943 66.88-66.88v0c0-36.937-29.943-66.88-66.88-66.88v0zM184.16 677.6c-19.264 0-34.88-15.616-34.88-34.88s15.616-34.88 34.88-34.88c19.264 0 34.88 15.616 34.88 34.88 0 0.056 0 0.112 0 0.169v-0.009c-0.359 18.986-15.835 34.24-34.874 34.24-0.002 0-0.004 0-0.006 0v0zM624 576c-36.937 0-66.88 29.943-66.88 66.88s29.943 66.88 66.88 66.88c36.937 0 66.88-29.943 66.88-66.88v0c0-36.937-29.943-66.88-66.88-66.88v0zM624 677.6c-19.264 0-34.88-15.616-34.88-34.88s15.616-34.88 34.88-34.88c19.264 0 34.88 15.616 34.88 34.88 0 0.056 0 0.112 0 0.169v-0.009c-0.359 18.986-15.835 34.24-34.874 34.24-0.002 0-0.004 0-0.006 0v0zM421.12 84.8c-36.78 0.091-66.56 29.928-66.56 66.72 0 36.848 29.872 66.72 66.72 66.72s66.72-29.871 66.72-66.72v0c0 0 0 0 0 0 0-36.848-29.872-66.72-66.72-66.72-0.056 0-0.112 0-0.169 0h0.009zM421.12 186.24c-19.106-0.091-34.56-15.601-34.56-34.72 0-19.175 15.545-34.72 34.72-34.72s34.72 15.544 34.72 34.72v0c0 0 0 0 0 0 0 19.175-15.545 34.72-34.72 34.72-0.056 0-0.112 0-0.169 0h0.009zM844.32 576c-0.047 0-0.104 0-0.16 0-36.937 0-66.88 29.943-66.88 66.88s29.943 66.88 66.88 66.88c36.937 0 66.88-29.943 66.88-66.88v0c0 0 0 0 0 0 0-36.881-29.852-66.789-66.711-66.88h-0.009zM844.32 677.6c-0.047 0-0.104 0-0.16 0-19.264 0-34.88-15.616-34.88-34.88s15.616-34.88 34.88-34.88c19.264 0 34.88 15.616 34.88 34.88 0 0.056 0 0.112 0 0.168v-0.009c-0.358 18.933-15.747 34.153-34.712 34.24h-0.008zM189.405 588.801l28.935 13.665 189.607-401.479-28.935-13.665-189.607 401.479zM433.968 199.957l162.934 399.059 29.626-12.096-162.934-399.059-29.626 12.096zM675.040 658.4h118.4v-32h-118.4v32zM514.24-48c-273.933 0-496 222.067-496 496s222.067 496 496 496c273.933 0 496-222.067 496-496v0c0-273.933-222.067-496-496-496v0zM514.24 912c-256.26 0-464-207.74-464-464s207.74-464 464-464c256.26 0 464 207.74 464 464v0c0 256.26-207.74 464-464 464v0z" />
</font>
</defs>
</svg>
